<?xml version="1.0" encoding="utf-8"?>
<!-- Generator: Adobe Illustrator 19.0.0, SVG Export Plug-In . SVG Version: 6.00 Build 0)  -->
<svg version="1.1" id="Слой_1" xmlns="http://www.w3.org/2000/svg" xmlns:xlink="http://www.w3.org/1999/xlink" x="0px" y="0px"
	 width="326px" height="106px" viewBox="0 0 326 106" style="enable-background:new 0 0 326 106;" xml:space="preserve">
<g id="XMLID_1_">
	<polygon id="XMLID_2_" points="134.04,4.53 134.04,28.62 137.56,28.62 137.56,8.05 319.36,8.05 319.36,99.48 137.56,99.48 
		137.56,78.91 134.04,78.91 134.04,103 322.88,103 322.88,4.53 	"/>
	<g id="XMLID_68_">
		<path id="XMLID_78_" d="M54.39,78.62c0.49,0,0.63,0.47,0.41,1.42c-0.21,0.95-0.76,1.98-1.65,3.11c-0.89,1.13-2.08,2.17-3.57,3.11
			c-1.5,0.95-3.31,1.42-5.45,1.42c-2.99,0-5.8-0.87-8.42-2.61c-2.62-1.74-5-3.88-7.14-6.41c-2.14-2.53-4.04-5.25-5.72-8.15
			c-1.68-2.9-3.04-5.51-4.07-7.83c-1.1,2.32-1.95,4.41-2.56,6.27c-0.61,1.86-0.92,3.31-0.92,4.35c0,0.67-0.27,0.92-0.82,0.73
			c-0.55-0.18-1.16-0.55-1.83-1.1c-0.67-0.55-1.28-1.21-1.83-1.97c-0.55-0.76-0.82-1.42-0.82-1.97c0-1.22,0.38-2.9,1.14-5.04
			c0.76-2.14,1.77-4.56,3.02-7.28c1.25-2.71,2.7-5.6,4.35-8.65c1.65-3.05,3.36-6.07,5.13-9.06c1.77-2.99,3.57-5.86,5.4-8.61
			c1.83-2.75,3.54-5.16,5.13-7.23c1.59-2.07,3.01-3.74,4.26-4.99c1.25-1.25,2.21-1.88,2.88-1.88c1.47,0,2.67,0.18,3.62,0.55
			c0.95,0.37,1.66,0.78,2.15,1.24c0.49,0.46,0.76,0.95,0.82,1.46c0.06,0.52-0.03,0.9-0.27,1.14c-1.95,1.95-3.95,4.17-6,6.64
			c-2.05,2.47-4.07,5.07-6.09,7.78c-2.01,2.72-3.95,5.51-5.81,8.38c-1.86,2.87-3.59,5.68-5.17,8.42c3.91-0.79,7.84-2.33,11.81-4.62
			c3.97-2.29,7.57-4.93,10.8-7.92c3.23-2.99,5.87-6.12,7.92-9.38c2.04-3.26,3.07-6.27,3.07-9.02c0-2.26-0.27-4.12-0.82-5.58
			c-0.55-1.46-1.3-2.64-2.24-3.52c-0.95-0.88-2.11-1.51-3.48-1.88c-1.37-0.37-2.88-0.55-4.53-0.55c-2.08,0-4.46,0.46-7.14,1.37
			c-2.69,0.92-5.4,2.18-8.15,3.8c-2.75,1.62-5.43,3.49-8.06,5.63c-2.62,2.14-4.97,4.43-7.05,6.87c-2.08,2.44-3.74,4.98-4.99,7.6
			c-1.25,2.63-1.88,5.22-1.88,7.78c0,0.92,0.18,1.57,0.55,1.97c0.37,0.4,0.76,0.69,1.19,0.87c0.43,0.18,0.82,0.34,1.19,0.46
			c0.37,0.12,0.55,0.37,0.55,0.73c0,0.37-0.54,0.5-1.6,0.41c-1.07-0.09-2.23-0.47-3.48-1.14c-1.25-0.67-2.41-1.62-3.48-2.84
			c-1.07-1.22-1.6-2.81-1.6-4.76c0-2.01,0.52-4.29,1.56-6.82c1.04-2.53,2.49-5.09,4.35-7.69c1.86-2.59,4.07-5.13,6.64-7.6
			s5.36-4.67,8.38-6.59c3.02-1.92,6.22-3.48,9.61-4.67C37.04,3.59,40.47,3,43.95,3c1.89,0,4.01,0.59,6.36,1.79
			c2.35,1.19,4.56,2.73,6.64,4.62c2.07,1.89,3.81,4.01,5.22,6.36c1.4,2.35,2.11,4.68,2.11,7c0,3.17-0.66,6.24-1.97,9.2
			c-1.31,2.96-3.05,5.72-5.22,8.28c-2.17,2.56-4.65,4.9-7.46,7c-2.81,2.11-5.71,3.94-8.7,5.49c-2.99,1.56-6,2.78-9.02,3.66
			c-3.02,0.89-5.78,1.39-8.28,1.51c1.1,2.38,2.41,5.07,3.94,8.06c1.52,2.99,3.28,5.81,5.26,8.47c1.98,2.65,4.23,4.9,6.73,6.73
			c2.5,1.83,5.31,2.75,8.42,2.75c1.34,0,2.35-0.27,3.02-0.82c0.67-0.55,1.19-1.16,1.56-1.83c0.37-0.67,0.64-1.28,0.82-1.83
			C53.57,78.89,53.9,78.62,54.39,78.62z"/>
		<path id="XMLID_75_" d="M79.93,53.62c-1.28,1.59-2.84,3.33-4.67,5.22c-1.83,1.89-3.74,3.68-5.72,5.36
			c-1.98,1.68-3.97,3.08-5.95,4.21c-1.98,1.13-3.8,1.69-5.45,1.69c-0.73,0-1.62-0.27-2.65-0.82c-1.04-0.55-2.01-1.25-2.93-2.11
			c-0.92-0.85-1.69-1.8-2.33-2.84c-0.64-1.04-0.96-2.07-0.96-3.11c0-1.65,0.34-3.33,1.01-5.03c0.67-1.71,1.54-3.39,2.61-5.04
			c1.07-1.65,2.24-3.19,3.52-4.62c1.28-1.43,2.52-2.7,3.71-3.8c1.19-1.1,2.24-1.97,3.16-2.61c0.92-0.64,1.56-0.96,1.92-0.96
			c0.92,0,1.86,0.27,2.84,0.82c0.98,0.55,1.88,1.22,2.7,2.01c0.82,0.79,1.51,1.62,2.06,2.47c0.55,0.86,0.82,1.56,0.82,2.11
			c0,1.16-0.52,2.5-1.56,4.03c-1.04,1.53-2.27,2.96-3.71,4.3c-1.43,1.34-2.93,2.49-4.49,3.43c-1.56,0.95-2.85,1.42-3.89,1.42
			c-0.43,0-0.82-0.09-1.19-0.27c-0.37-0.18-0.7-0.43-1.01-0.73c-0.61,1.22-1.08,2.4-1.42,3.52c-0.34,1.13-0.5,2.15-0.5,3.07
			c0,0.67,0.11,1.18,0.32,1.51c0.21,0.34,0.47,0.5,0.78,0.5c1.71,0,3.54-0.5,5.49-1.51c1.95-1.01,3.89-2.27,5.81-3.8
			c1.92-1.52,3.75-3.16,5.49-4.9c1.74-1.74,3.25-3.34,4.53-4.81L79.93,53.62z M70.04,44.84c-0.67,0-1.5,0.35-2.47,1.05
			c-0.98,0.7-1.98,1.63-3.02,2.79c-1.04,1.16-2.09,2.49-3.16,3.98c-1.07,1.5-2,3.01-2.79,4.53c1.46-0.37,3.05-1.2,4.76-2.52
			c1.71-1.31,3.22-2.7,4.53-4.16c1.31-1.47,2.23-2.78,2.75-3.94C71.16,45.42,70.96,44.84,70.04,44.84z"/>
		<path id="XMLID_73_" d="M103.82,10.96c0.92,0,1.77,0.18,2.56,0.55c0.79,0.37,1.47,0.81,2.01,1.33c0.55,0.52,0.93,1.04,1.14,1.56
			c0.21,0.52,0.14,0.96-0.23,1.33c-2.44,2.44-4.87,5.25-7.28,8.42c-2.41,3.17-4.68,6.5-6.82,9.98c-2.14,3.48-4.12,7-5.95,10.57
			c-1.83,3.57-3.42,6.97-4.76,10.21c-1.34,3.24-2.4,6.19-3.16,8.88c-0.76,2.69-1.14,4.88-1.14,6.59c0,0.49,0.03,0.87,0.09,1.14
			c0.06,0.27,0.14,0.52,0.23,0.73c0.09,0.21,0.18,0.43,0.27,0.64c0.09,0.21,0.14,0.5,0.14,0.87c0,0.49-0.36,0.67-1.06,0.55
			c-0.71-0.12-1.5-0.44-2.36-0.96c-0.87-0.52-1.66-1.19-2.37-2.01s-1.07-1.72-1.07-2.7c0-2.75,0.64-6.09,1.91-10.02
			c1.27-3.94,2.87-8.04,4.81-12.31c1.93-4.27,4.08-8.51,6.43-12.73c2.35-4.21,4.62-7.99,6.82-11.35c2.2-3.36,4.18-6.07,5.95-8.15
			C101.75,12,103.03,10.96,103.82,10.96z"/>
		<path id="XMLID_71_" d="M128.36,53.53c-1.22,1.65-2.44,3.25-3.66,4.81c-1.22,1.56-2.46,2.96-3.71,4.21
			c-1.25,1.25-2.55,2.26-3.89,3.02c-1.34,0.76-2.74,1.14-4.19,1.14c-0.36,0-0.81-0.14-1.35-0.41c-0.54-0.27-1.08-0.64-1.62-1.1
			c-0.54-0.46-1.01-0.96-1.4-1.51c-0.39-0.55-0.59-1.13-0.59-1.74c0-0.92,0.15-2.01,0.45-3.3c0.3-1.28,0.69-2.62,1.17-4.03
			c-1.1,1.59-2.41,3.39-3.93,5.4c-1.52,2.01-3.08,3.91-4.66,5.68c-1.58,1.77-3.13,3.25-4.62,4.44c-1.49,1.19-2.73,1.79-3.7,1.79
			c-0.61,0-1.2-0.21-1.78-0.64c-0.58-0.43-1.1-0.98-1.55-1.65c-0.46-0.67-0.82-1.4-1.1-2.2c-0.27-0.79-0.41-1.56-0.41-2.29
			c0-0.92,0.35-2.18,1.05-3.8c0.7-1.62,1.63-3.36,2.79-5.22c1.16-1.86,2.47-3.75,3.94-5.68c1.47-1.92,2.93-3.66,4.39-5.22
			c1.46-1.56,2.88-2.82,4.26-3.8c1.37-0.98,2.58-1.46,3.62-1.46c0.66,0,1.35,0.2,2.07,0.59c0.72,0.4,1.38,0.87,1.98,1.42
			c0.6,0.55,1.1,1.1,1.49,1.65c0.39,0.55,0.59,0.98,0.59,1.28c0,0.67-0.3,1.01-0.91,1.01c-0.49,0-0.8-0.17-0.96-0.5
			c-0.15-0.33-0.59-0.5-1.32-0.5c-0.37,0-0.96,0.37-1.78,1.1c-0.82,0.73-1.76,1.68-2.82,2.84c-1.06,1.16-2.16,2.47-3.28,3.94
			c-1.12,1.46-2.14,2.93-3.05,4.39c-0.91,1.47-1.67,2.84-2.28,4.12c-0.61,1.28-0.91,2.35-0.91,3.2c0,0.61,0.24,0.92,0.73,0.92
			c0.24,0,0.76-0.38,1.55-1.14c0.79-0.76,1.7-1.72,2.73-2.88c1.03-1.16,2.14-2.44,3.32-3.84c1.18-1.4,2.29-2.73,3.32-3.98
			c1.03-1.25,1.91-2.33,2.64-3.25c0.73-0.92,1.18-1.5,1.37-1.74c0.61-0.79,1.03-1.19,1.27-1.19c0.55,0,1.14,0.12,1.79,0.37
			c0.64,0.24,1.22,0.56,1.74,0.96c0.52,0.4,0.96,0.86,1.33,1.37c0.37,0.52,0.55,1.02,0.55,1.51c0,0.37-0.26,1.07-0.78,2.11
			c-0.52,1.04-1.08,2.17-1.69,3.39c-0.61,1.22-1.18,2.4-1.69,3.52c-0.52,1.13-0.78,1.97-0.78,2.52c0,0.49,0.18,0.73,0.55,0.73
			c0.79,0,1.63-0.32,2.52-0.96c0.88-0.64,1.83-1.49,2.84-2.56c1.01-1.07,2.04-2.29,3.11-3.66c1.07-1.37,2.18-2.82,3.34-4.35
			L128.36,53.53z"/>
		<path id="XMLID_69_" d="M152.98,41.91c0,0.86-0.44,1.97-1.33,3.34c-0.89,1.37-2.08,2.9-3.57,4.58c-1.5,1.68-3.24,3.46-5.22,5.36
			c-1.98,1.89-4.07,3.78-6.27,5.68c0.85,1.77,1.83,3.46,2.93,5.08c1.1,1.62,2.35,3.1,3.75,4.44c0.37,0.3,0.26,0.69-0.32,1.14
			c-0.58,0.46-1.63,0.69-3.16,0.69c-0.73,0-1.82-0.67-3.25-2.01c-1.43-1.34-2.92-3.17-4.44-5.49c-2.2,1.77-4.36,3.45-6.5,5.04
			s-4.1,2.98-5.9,4.17c-1.8,1.19-3.39,2.14-4.76,2.84c-1.37,0.7-2.39,1.05-3.07,1.05c-0.3,0-0.62-0.11-0.96-0.32
			c-0.33-0.21-0.62-0.46-0.87-0.73c-0.24-0.27-0.38-0.52-0.41-0.73c-0.03-0.21,0.11-0.32,0.41-0.32c0.79,0,1.91-0.37,3.34-1.1
			c1.43-0.73,3.05-1.74,4.85-3.02c1.8-1.28,3.72-2.79,5.77-4.53c2.05-1.74,4.07-3.62,6.09-5.63c-1.53-2.75-2.82-5.8-3.89-9.15
			c-1.07-3.36-1.6-6.93-1.6-10.71c0-0.73,0.4-1.36,1.19-1.88c0.79-0.52,1.68-0.92,2.65-1.19c0.98-0.27,1.86-0.43,2.65-0.46
			c0.79-0.03,1.19,0.11,1.19,0.41c0,2.69,0.18,5.58,0.55,8.7c0.37,3.11,1.04,6.19,2.01,9.25c2.87-3.3,5.26-6.59,7.19-9.89
			c1.92-3.3,2.88-6.29,2.88-8.97c0-0.98-0.09-1.82-0.27-2.52c-0.18-0.7,0.12-1.05,0.92-1.05c0.61,0,1.34,0.24,2.2,0.73
			c0.85,0.49,1.66,1.11,2.43,1.88c0.76,0.76,1.42,1.62,1.97,2.56C152.71,40.06,152.98,40.99,152.98,41.91z"/>
	</g>
	<g id="XMLID_27_">
		<g id="XMLID_55_">
			<path id="XMLID_66_" d="M166.15,58.84V31.62h5.29V54.2h13.87v4.64H166.15z"/>
			<path id="XMLID_63_" d="M198.19,31.62h4.68l10.35,27.21h-5.44l-2.53-6.78h-9.5l-2.49,6.78h-5.44L198.19,31.62z M204.29,48.33
				l-3.76-10.69l-3.91,10.69H204.29z"/>
			<path id="XMLID_61_" d="M234.33,38.75c-0.18-0.18-0.5-0.42-0.98-0.73c-0.47-0.31-1.05-0.61-1.73-0.9
				c-0.68-0.29-1.41-0.54-2.2-0.75c-0.79-0.2-1.6-0.31-2.41-0.31c-1.46,0-2.54,0.27-3.26,0.8c-0.72,0.54-1.07,1.29-1.07,2.26
				c0,0.56,0.13,1.03,0.4,1.4s0.66,0.7,1.17,0.98c0.51,0.28,1.16,0.54,1.94,0.77c0.78,0.23,1.68,0.47,2.7,0.73
				c1.33,0.36,2.54,0.74,3.62,1.15c1.09,0.41,2.01,0.92,2.76,1.53c0.75,0.61,1.34,1.35,1.74,2.2c0.41,0.86,0.61,1.91,0.61,3.16
				c0,1.46-0.27,2.7-0.82,3.74c-0.55,1.03-1.29,1.87-2.22,2.51c-0.93,0.64-2.01,1.11-3.22,1.4c-1.21,0.29-2.49,0.44-3.81,0.44
				c-2.04,0-4.06-0.31-6.06-0.92c-1.99-0.61-3.78-1.48-5.37-2.61l2.34-4.56c0.23,0.23,0.65,0.53,1.25,0.9
				c0.6,0.37,1.31,0.74,2.13,1.11c0.82,0.37,1.73,0.68,2.72,0.94c1,0.26,2.02,0.38,3.07,0.38c2.91,0,4.37-0.93,4.37-2.8
				c0-0.59-0.17-1.09-0.5-1.49c-0.33-0.41-0.8-0.77-1.42-1.07c-0.61-0.31-1.35-0.59-2.22-0.84c-0.87-0.26-1.84-0.54-2.91-0.84
				c-1.3-0.36-2.43-0.75-3.39-1.17c-0.96-0.42-1.76-0.92-2.4-1.49c-0.64-0.58-1.12-1.24-1.44-1.99c-0.32-0.75-0.48-1.65-0.48-2.7
				c0-1.38,0.25-2.61,0.77-3.68c0.51-1.07,1.22-1.97,2.13-2.68c0.91-0.72,1.96-1.26,3.16-1.63c1.2-0.37,2.49-0.56,3.87-0.56
				c1.92,0,3.68,0.3,5.29,0.9c1.61,0.6,3.01,1.31,4.22,2.13L234.33,38.75z"/>
			<path id="XMLID_59_" d="M262.43,54.2v4.64h-18.9V31.62h18.55v4.64h-13.26v6.55h11.46v4.29h-11.46v7.09H262.43z"/>
			<path id="XMLID_56_" d="M268.48,58.84V31.62h12.03c1.25,0,2.41,0.26,3.47,0.79c1.06,0.52,1.97,1.21,2.74,2.07
				c0.77,0.86,1.37,1.83,1.8,2.91c0.43,1.09,0.65,2.18,0.65,3.28c0,1.76-0.44,3.37-1.32,4.81c-0.88,1.44-2.08,2.49-3.58,3.12
				l6.21,10.23h-5.94l-5.56-9.12h-5.21v9.12H268.48z M273.77,45.08h6.63c0.49,0,0.94-0.12,1.36-0.34c0.42-0.23,0.79-0.54,1.09-0.94
				c0.31-0.4,0.55-0.86,0.73-1.4c0.18-0.54,0.27-1.11,0.27-1.72c0-0.64-0.1-1.23-0.31-1.76c-0.2-0.54-0.48-1-0.82-1.4
				c-0.34-0.4-0.74-0.7-1.19-0.92c-0.45-0.22-0.9-0.33-1.36-0.33h-6.4V45.08z"/>
		</g>
		<g id="XMLID_28_">
			<path id="XMLID_53_" d="M171.85,68.44v7.54h-0.96v-3.43h-4.15v3.43h-0.96v-7.54h0.96v3.26h4.15v-3.26H171.85z"/>
			<path id="XMLID_50_" d="M181.52,76.03c-0.53,0-1.01-0.11-1.45-0.32c-0.44-0.22-0.81-0.5-1.12-0.86
				c-0.31-0.36-0.55-0.77-0.72-1.23c-0.17-0.46-0.25-0.93-0.25-1.41c0-0.5,0.09-0.98,0.27-1.44c0.18-0.46,0.43-0.87,0.75-1.22
				c0.32-0.35,0.7-0.64,1.13-0.84s0.91-0.31,1.42-0.31c0.53,0,1.01,0.11,1.44,0.33c0.43,0.22,0.8,0.51,1.11,0.88
				c0.31,0.36,0.55,0.77,0.72,1.23c0.17,0.46,0.25,0.92,0.25,1.4c0,0.5-0.09,0.98-0.27,1.44c-0.18,0.46-0.43,0.87-0.74,1.22
				c-0.31,0.35-0.69,0.63-1.13,0.84C182.5,75.93,182.03,76.03,181.52,76.03z M178.94,72.21c0,0.38,0.06,0.75,0.19,1.11
				c0.12,0.36,0.3,0.67,0.53,0.95c0.23,0.28,0.5,0.5,0.82,0.66c0.32,0.16,0.67,0.24,1.06,0.24c0.4,0,0.76-0.09,1.08-0.26
				c0.32-0.17,0.59-0.4,0.81-0.68c0.22-0.28,0.39-0.6,0.51-0.95c0.12-0.35,0.18-0.71,0.18-1.07c0-0.38-0.06-0.75-0.19-1.11
				c-0.12-0.36-0.3-0.67-0.53-0.94c-0.23-0.27-0.5-0.49-0.82-0.65c-0.31-0.16-0.66-0.24-1.05-0.24c-0.4,0-0.76,0.08-1.08,0.25
				c-0.32,0.17-0.59,0.39-0.81,0.67c-0.22,0.28-0.4,0.59-0.52,0.94C179,71.48,178.94,71.84,178.94,72.21z"/>
			<path id="XMLID_46_" d="M196.77,74.04c0,0.29-0.06,0.56-0.18,0.8c-0.12,0.24-0.28,0.45-0.48,0.62c-0.2,0.17-0.44,0.3-0.7,0.39
				c-0.27,0.09-0.55,0.14-0.85,0.14h-3.58v-7.54h3.75c0.26,0,0.5,0.06,0.71,0.17c0.21,0.11,0.39,0.26,0.54,0.44s0.26,0.39,0.35,0.62
				c0.08,0.23,0.12,0.46,0.12,0.7c0,0.38-0.09,0.72-0.28,1.04c-0.19,0.32-0.45,0.56-0.8,0.71c0.43,0.13,0.77,0.36,1.02,0.71
				C196.64,73.16,196.77,73.57,196.77,74.04z M191.94,69.27v2.52h2.4c0.17,0,0.33-0.03,0.47-0.1c0.14-0.07,0.26-0.16,0.37-0.27
				c0.1-0.11,0.18-0.25,0.24-0.4c0.06-0.15,0.09-0.31,0.09-0.48c0-0.18-0.03-0.34-0.08-0.5c-0.06-0.16-0.13-0.29-0.23-0.4
				c-0.1-0.11-0.21-0.2-0.35-0.27c-0.14-0.06-0.29-0.1-0.44-0.1H191.94z M195.8,73.87c0-0.17-0.03-0.33-0.09-0.49
				c-0.06-0.16-0.14-0.3-0.24-0.42s-0.22-0.22-0.37-0.29c-0.14-0.07-0.3-0.11-0.47-0.11h-2.7v2.59h2.62c0.18,0,0.34-0.04,0.49-0.11
				c0.15-0.07,0.28-0.16,0.39-0.28c0.11-0.12,0.2-0.25,0.27-0.41C195.77,74.2,195.8,74.04,195.8,73.87z"/>
			<path id="XMLID_43_" d="M206.17,76.03c-0.53,0-1.01-0.11-1.45-0.32c-0.44-0.22-0.81-0.5-1.12-0.86
				c-0.31-0.36-0.55-0.77-0.72-1.23c-0.17-0.46-0.25-0.93-0.25-1.41c0-0.5,0.09-0.98,0.27-1.44c0.18-0.46,0.43-0.87,0.75-1.22
				c0.32-0.35,0.7-0.64,1.13-0.84s0.91-0.31,1.42-0.31c0.53,0,1.01,0.11,1.44,0.33c0.43,0.22,0.8,0.51,1.11,0.88
				c0.31,0.36,0.55,0.77,0.72,1.23c0.17,0.46,0.25,0.92,0.25,1.4c0,0.5-0.09,0.98-0.27,1.44c-0.18,0.46-0.43,0.87-0.74,1.22
				c-0.31,0.35-0.69,0.63-1.13,0.84C207.15,75.93,206.68,76.03,206.17,76.03z M203.59,72.21c0,0.38,0.06,0.75,0.19,1.11
				c0.12,0.36,0.3,0.67,0.53,0.95c0.23,0.28,0.5,0.5,0.82,0.66c0.32,0.16,0.67,0.24,1.06,0.24c0.4,0,0.76-0.09,1.08-0.26
				c0.32-0.17,0.59-0.4,0.81-0.68c0.22-0.28,0.39-0.6,0.51-0.95c0.12-0.35,0.18-0.71,0.18-1.07c0-0.38-0.06-0.75-0.19-1.11
				c-0.12-0.36-0.3-0.67-0.53-0.94c-0.23-0.27-0.5-0.49-0.82-0.65c-0.31-0.16-0.66-0.24-1.05-0.24c-0.4,0-0.76,0.08-1.08,0.25
				c-0.32,0.17-0.59,0.39-0.81,0.67c-0.22,0.28-0.4,0.59-0.52,0.94C203.65,71.48,203.59,71.84,203.59,72.21z"/>
			<path id="XMLID_41_" d="M216.79,71.72h0.96l2.47-3.28h1.09l-2.69,3.64l2.93,3.9h-1.09l-2.61-3.41h-1.06v3.41h-0.96v-7.54h0.96
				V71.72z"/>
			<path id="XMLID_39_" d="M228.11,76.05c-0.13,0-0.28-0.01-0.45-0.04c-0.16-0.03-0.3-0.06-0.41-0.11v-0.82
				c0.12,0.05,0.25,0.09,0.4,0.11c0.14,0.02,0.28,0.03,0.4,0.03c0.24,0,0.45-0.07,0.64-0.22c0.19-0.15,0.37-0.44,0.56-0.88
				l-2.74-5.68h1.01l2.18,4.64l2.06-4.64h1.01l-2.65,5.73c-0.16,0.34-0.31,0.63-0.46,0.87c-0.15,0.24-0.3,0.43-0.46,0.58
				c-0.16,0.15-0.32,0.26-0.5,0.33C228.52,76.02,228.33,76.05,228.11,76.05z"/>
			<path id="XMLID_37_" d="M238.15,69.33c0.24-0.32,0.53-0.56,0.85-0.71c0.33-0.16,0.74-0.23,1.23-0.23c0.7,0,1.24,0.15,1.63,0.46
				c0.39,0.3,0.58,0.75,0.58,1.33c0,0.43-0.11,0.8-0.32,1.11c-0.21,0.31-0.51,0.51-0.89,0.6c0.47,0.06,0.84,0.24,1.13,0.56
				c0.28,0.32,0.42,0.73,0.42,1.24c0,0.34-0.07,0.65-0.2,0.94c-0.13,0.29-0.31,0.53-0.55,0.74c-0.23,0.21-0.51,0.37-0.83,0.49
				c-0.32,0.12-0.67,0.17-1.04,0.17c-0.5,0-0.95-0.1-1.34-0.31c-0.39-0.21-0.69-0.5-0.89-0.87l0.76-0.56
				c0.16,0.27,0.36,0.48,0.6,0.64c0.24,0.16,0.54,0.23,0.9,0.23c0.23,0,0.45-0.04,0.64-0.11c0.19-0.07,0.36-0.17,0.5-0.29
				c0.14-0.12,0.25-0.27,0.33-0.45c0.08-0.17,0.12-0.36,0.12-0.57c0-0.45-0.18-0.8-0.54-1.06c-0.36-0.26-0.85-0.39-1.49-0.39h-0.57
				v-0.85h0.57c0.53,0,0.95-0.11,1.25-0.32s0.46-0.51,0.46-0.89c0-0.35-0.12-0.6-0.36-0.77c-0.24-0.17-0.54-0.25-0.9-0.25
				c-0.32,0-0.61,0.06-0.86,0.19c-0.25,0.12-0.45,0.3-0.59,0.53L238.15,69.33z"/>
			<path id="XMLID_35_" d="M254.98,68.44v7.54h-0.96v-3.43h-4.15v3.43h-0.96v-7.54h0.96v3.26h4.15v-3.26H254.98z"/>
			<path id="XMLID_33_" d="M266.72,75.13v0.85h-5.12v-7.54h5.02v0.85h-4.07v2.44h3.54v0.8h-3.54v2.6H266.72z"/>
			<path id="XMLID_31_" d="M278.68,75.98h-5.85v-7.54h0.96v6.69h3.62v-6.69h0.96v6.69h1.17v2.82h-0.85V75.98z"/>
			<path id="XMLID_29_" d="M286.36,71.72h0.96l2.47-3.28h1.09l-2.69,3.64l2.93,3.9h-1.09l-2.61-3.41h-1.06v3.41h-0.96v-7.54h0.96
				V71.72z"/>
		</g>
	</g>
</g>
<g id="XMLID_251_">
</g>
<g id="XMLID_252_">
</g>
<g id="XMLID_253_">
</g>
<g id="XMLID_254_">
</g>
<g id="XMLID_255_">
</g>
<g id="XMLID_256_">
</g>
<g id="XMLID_257_">
</g>
<g id="XMLID_258_">
</g>
<g id="XMLID_259_">
</g>
<g id="XMLID_260_">
</g>
<g id="XMLID_261_">
</g>
<g id="XMLID_262_">
</g>
<g id="XMLID_263_">
</g>
<g id="XMLID_264_">
</g>
<g id="XMLID_265_">
</g>
</svg>
