<?xml version="1.0" encoding="utf-8"?>
<!-- Generator: Adobe Illustrator 19.0.0, SVG Export Plug-In . SVG Version: 6.00 Build 0)  -->
<svg version="1.1" id="Слой_1" xmlns="http://www.w3.org/2000/svg" xmlns:xlink="http://www.w3.org/1999/xlink" x="0px" y="0px"
	 width="370px" height="140px" viewBox="0 0 370 140" style="enable-background:new 0 0 370 140;" xml:space="preserve">
<g id="XMLID_1_">
	<g id="XMLID_37_">
		<path id="XMLID_48_" d="M3.5,82.21V2.76h15.44v65.91h40.51v13.54H3.5z"/>
		<path id="XMLID_45_" d="M97.05,2.76h13.65l30.21,79.45h-15.89l-7.39-19.81H89.89l-7.27,19.81H66.72L97.05,2.76z M114.84,51.55
			l-10.97-31.22L92.46,51.55H114.84z"/>
		<path id="XMLID_43_" d="M202.57,23.57c-0.52-0.52-1.47-1.23-2.85-2.12c-1.38-0.9-3.06-1.77-5.04-2.63
			c-1.98-0.86-4.12-1.58-6.43-2.18c-2.31-0.6-4.66-0.9-7.05-0.9c-4.25,0-7.42,0.78-9.51,2.35c-2.09,1.57-3.13,3.77-3.13,6.6
			c0,1.64,0.39,3,1.17,4.08c0.78,1.08,1.92,2.03,3.41,2.85c1.49,0.82,3.37,1.57,5.65,2.24c2.28,0.67,4.91,1.38,7.89,2.13
			c3.88,1.04,7.4,2.16,10.57,3.36c3.17,1.19,5.86,2.69,8.06,4.48c2.2,1.79,3.9,3.94,5.09,6.43c1.19,2.5,1.79,5.58,1.79,9.23
			c0,4.25-0.8,7.89-2.4,10.91c-1.61,3.02-3.77,5.47-6.49,7.33c-2.72,1.87-5.86,3.23-9.4,4.08c-3.54,0.86-7.26,1.29-11.13,1.29
			c-5.97,0-11.86-0.9-17.68-2.69c-5.82-1.79-11.04-4.33-15.67-7.61l6.83-13.32c0.67,0.67,1.88,1.55,3.64,2.63
			c1.75,1.08,3.82,2.16,6.21,3.24c2.39,1.08,5.04,2,7.94,2.74c2.91,0.75,5.89,1.12,8.95,1.12c8.51,0,12.76-2.72,12.76-8.17
			c0-1.72-0.49-3.17-1.45-4.36c-0.97-1.19-2.35-2.24-4.14-3.13c-1.79-0.9-3.95-1.72-6.49-2.46c-2.54-0.75-5.37-1.57-8.5-2.46
			c-3.81-1.04-7.11-2.18-9.9-3.41s-5.13-2.69-6.99-4.36c-1.87-1.68-3.26-3.62-4.2-5.82c-0.93-2.2-1.4-4.83-1.4-7.89
			c0-4.03,0.74-7.61,2.24-10.74c1.49-3.13,3.56-5.74,6.21-7.83c2.65-2.09,5.72-3.67,9.23-4.76c3.51-1.08,7.27-1.62,11.3-1.62
			c5.6,0,10.74,0.88,15.44,2.63c4.7,1.75,8.8,3.82,12.31,6.21L202.57,23.57z"/>
		<path id="XMLID_41_" d="M284.59,68.67v13.54h-55.17V2.76h54.16V16.3h-38.72v19.13h33.46v12.53h-33.46v20.7H284.59z"/>
		<path id="XMLID_38_" d="M302.27,82.21V2.76h35.14c3.65,0,7.03,0.77,10.13,2.29c3.09,1.53,5.76,3.54,8,6.04
			c2.24,2.5,3.99,5.33,5.26,8.5c1.27,3.17,1.9,6.36,1.9,9.57c0,5.15-1.29,9.83-3.86,14.04c-2.57,4.22-6.06,7.26-10.46,9.12
			l18.13,29.88h-17.34l-16.23-26.63h-15.22v26.63H302.27z M317.71,42.03h19.36c1.42,0,2.74-0.34,3.97-1.01
			c1.23-0.67,2.29-1.58,3.19-2.74c0.9-1.15,1.6-2.52,2.12-4.08c0.52-1.57,0.78-3.24,0.78-5.03c0-1.86-0.3-3.58-0.9-5.15
			c-0.6-1.57-1.4-2.93-2.41-4.08c-1.01-1.16-2.16-2.05-3.47-2.69c-1.31-0.63-2.63-0.95-3.97-0.95h-18.69V42.03z"/>
	</g>
	<g id="XMLID_10_">
		<path id="XMLID_35_" d="M21.06,110.25v21.83h-2.77v-9.93H6.27v9.93H3.5v-21.83h2.77v9.44h12.02v-9.44H21.06z"/>
		<path id="XMLID_32_" d="M49.07,132.24c-1.54,0-2.94-0.31-4.2-0.94c-1.26-0.63-2.34-1.46-3.24-2.49c-0.9-1.03-1.6-2.22-2.09-3.55
			c-0.49-1.33-0.74-2.7-0.74-4.09c0-1.46,0.26-2.85,0.78-4.18c0.52-1.33,1.25-2.51,2.17-3.54c0.92-1.02,2.01-1.84,3.27-2.44
			c1.26-0.6,2.63-0.91,4.11-0.91c1.54,0,2.93,0.32,4.18,0.97c1.25,0.65,2.33,1.49,3.23,2.54c0.9,1.05,1.6,2.23,2.09,3.55
			c0.49,1.32,0.74,2.67,0.74,4.04c0,1.46-0.26,2.85-0.78,4.18c-0.52,1.33-1.24,2.51-2.15,3.52c-0.91,1.01-2,1.82-3.26,2.43
			C51.92,131.93,50.55,132.24,49.07,132.24z M41.6,121.17c0,1.11,0.18,2.18,0.54,3.21c0.36,1.04,0.87,1.95,1.52,2.75
			c0.66,0.8,1.45,1.43,2.37,1.91s1.95,0.71,3.07,0.71c1.17,0,2.21-0.25,3.14-0.75c0.92-0.5,1.71-1.16,2.35-1.97
			c0.65-0.81,1.14-1.73,1.48-2.75c0.34-1.02,0.51-2.06,0.51-3.1c0-1.11-0.18-2.18-0.54-3.21c-0.36-1.03-0.87-1.95-1.54-2.74
			c-0.67-0.79-1.46-1.42-2.37-1.89c-0.91-0.47-1.92-0.71-3.03-0.71c-1.17,0-2.21,0.25-3.14,0.74c-0.92,0.49-1.71,1.14-2.35,1.94
			c-0.65,0.8-1.14,1.71-1.49,2.74C41.77,119.05,41.6,120.1,41.6,121.17z"/>
		<path id="XMLID_28_" d="M93.23,126.45c0,0.84-0.17,1.61-0.51,2.31s-0.8,1.29-1.38,1.78c-0.58,0.49-1.26,0.87-2.03,1.14
			c-0.77,0.27-1.59,0.4-2.47,0.4H76.47v-21.83h10.85c0.76,0,1.45,0.17,2.06,0.49c0.62,0.33,1.14,0.75,1.57,1.28
			c0.43,0.52,0.76,1.12,1,1.78c0.23,0.67,0.35,1.34,0.35,2.02c0,1.09-0.27,2.09-0.82,3.01c-0.54,0.92-1.32,1.61-2.32,2.06
			c1.25,0.37,2.24,1.05,2.97,2.05C92.86,123.93,93.23,125.1,93.23,126.45z M79.24,112.65v7.29h6.95c0.49,0,0.94-0.1,1.35-0.29
			c0.41-0.19,0.76-0.46,1.06-0.78c0.3-0.33,0.53-0.71,0.71-1.15c0.17-0.44,0.26-0.91,0.26-1.4c0-0.51-0.08-0.99-0.25-1.45
			c-0.17-0.45-0.38-0.84-0.66-1.17c-0.28-0.33-0.62-0.58-1.01-0.77c-0.4-0.18-0.83-0.28-1.28-0.28H79.24z M90.43,125.96
			c0-0.49-0.09-0.97-0.26-1.43c-0.17-0.46-0.41-0.87-0.71-1.22c-0.3-0.35-0.65-0.62-1.06-0.83c-0.41-0.2-0.86-0.31-1.35-0.31h-7.81
			v7.5h7.6c0.51,0,0.98-0.1,1.41-0.31c0.43-0.2,0.81-0.48,1.14-0.82c0.33-0.34,0.58-0.73,0.77-1.18
			C90.34,126.93,90.43,126.45,90.43,125.96z"/>
		<path id="XMLID_25_" d="M120.44,132.24c-1.54,0-2.94-0.31-4.2-0.94c-1.26-0.63-2.34-1.46-3.24-2.49c-0.9-1.03-1.6-2.22-2.09-3.55
			c-0.49-1.33-0.74-2.7-0.74-4.09c0-1.46,0.26-2.85,0.78-4.18c0.52-1.33,1.25-2.51,2.17-3.54c0.92-1.02,2.01-1.84,3.27-2.44
			c1.26-0.6,2.63-0.91,4.11-0.91c1.54,0,2.93,0.32,4.18,0.97c1.25,0.65,2.33,1.49,3.23,2.54c0.9,1.05,1.6,2.23,2.09,3.55
			c0.49,1.32,0.74,2.67,0.74,4.04c0,1.46-0.26,2.85-0.78,4.18c-0.52,1.33-1.24,2.51-2.15,3.52c-0.91,1.01-2,1.82-3.26,2.43
			C123.29,131.93,121.92,132.24,120.44,132.24z M112.97,121.17c0,1.11,0.18,2.18,0.54,3.21c0.36,1.04,0.87,1.95,1.52,2.75
			c0.66,0.8,1.45,1.43,2.37,1.91s1.95,0.71,3.07,0.71c1.17,0,2.21-0.25,3.14-0.75c0.92-0.5,1.71-1.16,2.35-1.97
			c0.65-0.81,1.14-1.73,1.48-2.75c0.34-1.02,0.51-2.06,0.51-3.1c0-1.11-0.18-2.18-0.54-3.21c-0.36-1.03-0.87-1.95-1.54-2.74
			c-0.67-0.79-1.46-1.42-2.37-1.89c-0.91-0.47-1.92-0.71-3.03-0.71c-1.17,0-2.21,0.25-3.14,0.74c-0.92,0.49-1.71,1.14-2.35,1.94
			c-0.65,0.8-1.14,1.71-1.49,2.74C113.14,119.05,112.97,120.1,112.97,121.17z"/>
		<path id="XMLID_23_" d="M151.22,119.75h2.77l7.17-9.5h3.17l-7.78,10.55l8.49,11.29h-3.17l-7.57-9.87h-3.07v9.87h-2.77v-21.83h2.77
			V119.75z"/>
		<path id="XMLID_21_" d="M184,132.3c-0.39,0-0.82-0.04-1.29-0.11c-0.47-0.07-0.87-0.18-1.2-0.32v-2.37
			c0.35,0.14,0.73,0.25,1.15,0.31c0.42,0.06,0.8,0.09,1.15,0.09c0.7,0,1.32-0.22,1.86-0.65c0.54-0.43,1.08-1.28,1.61-2.55
			l-7.93-16.45h2.92l6.3,13.44l5.97-13.44h2.92l-7.69,16.61c-0.45,0.98-0.89,1.82-1.32,2.51c-0.43,0.69-0.87,1.25-1.32,1.69
			c-0.45,0.44-0.93,0.76-1.45,0.95C185.18,132.2,184.61,132.3,184,132.3z"/>
		<path id="XMLID_19_" d="M213.06,112.83c0.7-0.92,1.52-1.61,2.48-2.06c0.95-0.45,2.14-0.68,3.55-0.68c2.03,0,3.6,0.44,4.72,1.32
			c1.12,0.88,1.68,2.16,1.68,3.84c0,1.25-0.31,2.32-0.92,3.21c-0.62,0.89-1.48,1.47-2.58,1.74c1.35,0.16,2.44,0.71,3.26,1.63
			c0.82,0.92,1.23,2.12,1.23,3.6c0,0.98-0.19,1.89-0.57,2.72c-0.38,0.83-0.91,1.55-1.58,2.15c-0.68,0.6-1.48,1.08-2.4,1.42
			c-0.92,0.34-1.93,0.51-3.01,0.51c-1.46,0-2.75-0.3-3.87-0.89c-1.13-0.59-1.99-1.43-2.58-2.52l2.22-1.63
			c0.47,0.78,1.05,1.39,1.75,1.85s1.57,0.68,2.61,0.68c0.68,0,1.3-0.1,1.86-0.31c0.56-0.2,1.05-0.49,1.46-0.85
			c0.41-0.36,0.73-0.79,0.97-1.29c0.24-0.5,0.35-1.05,0.35-1.65c0-1.29-0.52-2.31-1.55-3.06c-1.03-0.75-2.48-1.12-4.32-1.12h-1.66
			v-2.46h1.66c1.54,0,2.75-0.31,3.63-0.92s1.32-1.48,1.32-2.58c0-1-0.34-1.75-1.03-2.24c-0.69-0.49-1.55-0.74-2.6-0.74
			c-0.92,0-1.75,0.18-2.49,0.54s-1.31,0.87-1.72,1.52L213.06,112.83z"/>
		<path id="XMLID_17_" d="M261.8,110.25v21.83h-2.77v-9.93h-12.02v9.93h-2.77v-21.83h2.77v9.44h12.02v-9.44H261.8z"/>
		<path id="XMLID_15_" d="M295.81,129.62v2.46h-14.82v-21.83h14.54v2.46h-11.78v7.07h10.24v2.31h-10.24v7.53H295.81z"/>
		<path id="XMLID_13_" d="M330.43,132.08h-16.94v-21.83h2.77v19.37h10.49v-19.37h2.77v19.37h3.38v8.18h-2.46V132.08z"/>
		<path id="XMLID_11_" d="M352.69,119.75h2.77l7.17-9.5h3.17l-7.78,10.55l8.49,11.29h-3.17l-7.57-9.87h-3.07v9.87h-2.77v-21.83h2.77
			V119.75z"/>
	</g>
</g>
<g id="XMLID_68_">
</g>
<g id="XMLID_69_">
</g>
<g id="XMLID_70_">
</g>
<g id="XMLID_71_">
</g>
<g id="XMLID_72_">
</g>
<g id="XMLID_73_">
</g>
<g id="XMLID_74_">
</g>
<g id="XMLID_75_">
</g>
<g id="XMLID_76_">
</g>
<g id="XMLID_77_">
</g>
<g id="XMLID_78_">
</g>
<g id="XMLID_79_">
</g>
<g id="XMLID_80_">
</g>
<g id="XMLID_81_">
</g>
<g id="XMLID_82_">
</g>
</svg>
