<?xml version="1.0" encoding="utf-8"?>
<!-- Generator: Adobe Illustrator 19.0.0, SVG Export Plug-In . SVG Version: 6.00 Build 0)  -->
<svg version="1.1" id="Слой_1" xmlns="http://www.w3.org/2000/svg" xmlns:xlink="http://www.w3.org/1999/xlink" x="0px" y="0px"
	 width="450px" height="260px" viewBox="0 0 450 260" style="enable-background:new 0 0 450 260;" xml:space="preserve">
<g id="XMLID_50_">
	<path id="XMLID_60_" d="M155.52,227.71c1.43,0,1.84,1.39,1.21,4.17c-0.63,2.78-2.24,5.82-4.84,9.14c-2.6,3.31-6.09,6.36-10.48,9.14
		c-4.39,2.78-9.72,4.17-15.99,4.17c-8.78,0-17.03-2.55-24.73-7.66c-7.71-5.11-14.69-11.38-20.97-18.82
		c-6.27-7.44-11.87-15.41-16.8-23.92c-4.93-8.51-8.92-16.17-11.96-22.98c-3.22,6.81-5.74,12.95-7.53,18.41
		c-1.79,5.46-2.69,9.72-2.69,12.77c0,1.97-0.81,2.69-2.42,2.15c-1.61-0.54-3.41-1.61-5.37-3.23c-1.97-1.61-3.76-3.54-5.38-5.78
		c-1.61-2.24-2.42-4.17-2.42-5.78c0-3.58,1.12-8.51,3.36-14.78c2.24-6.27,5.2-13.39,8.87-21.37c3.67-7.97,7.93-16.44,12.77-25.4
		c4.84-8.96,9.85-17.83,15.05-26.61c5.2-8.78,10.48-17.2,15.86-25.27c5.37-8.06,10.39-15.14,15.05-21.23
		c4.66-6.09,8.82-10.97,12.5-14.65c3.67-3.67,6.49-5.51,8.47-5.51c4.3,0,7.84,0.54,10.62,1.61c2.78,1.08,4.88,2.28,6.32,3.63
		c1.43,1.34,2.24,2.78,2.42,4.3c0.18,1.52-0.09,2.65-0.81,3.36c-5.74,5.74-11.6,12.23-17.61,19.49
		c-6.01,7.26-11.96,14.88-17.87,22.85c-5.91,7.98-11.6,16.17-17.07,24.59c-5.47,8.43-10.53,16.66-15.19,24.73
		c11.47-2.33,23.02-6.85,34.67-13.57c11.65-6.72,22.22-14.47,31.72-23.25c9.5-8.78,17.24-17.96,23.25-27.55
		c6-9.58,9.01-18.41,9.01-26.48c0-6.63-0.81-12.1-2.42-16.4c-1.61-4.3-3.81-7.75-6.59-10.35c-2.78-2.59-6.18-4.43-10.21-5.51
		c-4.03-1.08-8.47-1.61-13.31-1.61c-6.09,0-13.08,1.34-20.97,4.03c-7.89,2.69-15.86,6.41-23.92,11.15
		c-8.06,4.75-15.95,10.26-23.65,16.53c-7.71,6.27-14.61,12.99-20.7,20.16c-6.09,7.17-10.98,14.61-14.65,22.31
		c-3.67,7.71-5.51,15.32-5.51,22.85c0,2.69,0.54,4.61,1.61,5.78c1.07,1.17,2.24,2.02,3.49,2.55c1.25,0.54,2.42,0.99,3.49,1.34
		c1.07,0.36,1.61,1.08,1.61,2.15c0,1.07-1.57,1.48-4.7,1.21c-3.14-0.27-6.54-1.39-10.21-3.36c-3.67-1.97-7.08-4.75-10.21-8.33
		C6.57,119.29,5,114.64,5,108.9c0-5.91,1.53-12.59,4.57-20.03c3.05-7.43,7.3-14.96,12.77-22.58c5.46-7.61,11.96-15.05,19.49-22.31
		s15.72-13.71,24.59-19.35c8.87-5.64,18.28-10.21,28.22-13.71c9.95-3.49,20.02-5.24,30.24-5.24c5.55,0,11.78,1.75,18.68,5.24
		c6.9,3.49,13.39,8.02,19.49,13.57c6.09,5.56,11.2,11.79,15.32,18.68c4.12,6.9,6.18,13.75,6.18,20.56c0,9.32-1.93,18.32-5.78,27.01
		c-3.85,8.69-8.96,16.8-15.32,24.33c-6.36,7.53-13.67,14.38-21.91,20.56c-8.24,6.18-16.76,11.56-25.53,16.13
		c-8.78,4.57-17.61,8.16-26.48,10.75c-8.87,2.6-16.98,4.08-24.33,4.43c3.23,6.99,7.08,14.88,11.56,23.65
		c4.48,8.78,9.63,17.07,15.46,24.86c5.82,7.8,12.41,14.38,19.76,19.76c7.35,5.38,15.59,8.06,24.73,8.06c3.94,0,6.9-0.81,8.87-2.42
		c1.97-1.61,3.49-3.41,4.57-5.37c1.07-1.97,1.88-3.76,2.42-5.38C153.1,228.51,154.09,227.71,155.52,227.71z"/>
	<path id="XMLID_57_" d="M230.52,154.33c-3.76,4.66-8.33,9.77-13.71,15.32c-5.38,5.56-10.98,10.8-16.8,15.73
		c-5.83,4.93-11.65,9.05-17.47,12.36c-5.82,3.31-11.15,4.97-15.99,4.97c-2.15,0-4.75-0.81-7.8-2.42c-3.05-1.61-5.91-3.67-8.6-6.18
		c-2.69-2.51-4.97-5.28-6.86-8.33c-1.88-3.04-2.82-6.09-2.82-9.14c0-4.84,0.99-9.76,2.96-14.78c1.97-5.02,4.53-9.95,7.66-14.78
		c3.13-4.84,6.59-9.36,10.35-13.57c3.76-4.21,7.39-7.93,10.89-11.15c3.49-3.22,6.59-5.78,9.27-7.66c2.69-1.88,4.57-2.82,5.65-2.82
		c2.69,0,5.46,0.81,8.33,2.42c2.87,1.61,5.51,3.59,7.93,5.91c2.42,2.33,4.43,4.75,6.05,7.26c1.61,2.51,2.42,4.57,2.42,6.18
		c0,3.41-1.52,7.35-4.57,11.83c-3.05,4.48-6.68,8.69-10.89,12.63c-4.21,3.94-8.6,7.3-13.17,10.08c-4.57,2.78-8.38,4.17-11.42,4.17
		c-1.26,0-2.42-0.27-3.49-0.81c-1.08-0.54-2.06-1.25-2.96-2.15c-1.79,3.59-3.18,7.04-4.17,10.35c-0.99,3.32-1.48,6.32-1.48,9
		c0,1.97,0.31,3.45,0.94,4.43c0.63,0.99,1.39,1.48,2.28,1.48c5.02,0,10.39-1.48,16.13-4.43c5.73-2.96,11.42-6.67,17.07-11.16
		c5.65-4.48,11.02-9.27,16.13-14.38c5.11-5.11,9.54-9.81,13.31-14.11L230.52,154.33z M201.49,128.52c-1.97,0-4.39,1.03-7.26,3.09
		c-2.87,2.06-5.82,4.8-8.87,8.2c-3.05,3.41-6.14,7.3-9.27,11.69c-3.14,4.39-5.87,8.83-8.2,13.3c4.3-1.07,8.96-3.54,13.98-7.39
		c5.02-3.85,9.45-7.93,13.31-12.23c3.85-4.3,6.54-8.15,8.06-11.56C204.75,130.23,204.17,128.52,201.49,128.52z"/>
	<path id="XMLID_55_" d="M300.67,29.07c2.69,0,5.2,0.54,7.53,1.61c2.33,1.07,4.3,2.38,5.91,3.9c1.61,1.52,2.73,3.05,3.36,4.57
		c0.63,1.52,0.4,2.82-0.67,3.9c-7.17,7.17-14.29,15.41-21.37,24.73c-7.08,9.32-13.75,19.08-20.03,29.3
		c-6.27,10.21-12.1,20.56-17.47,31.05c-5.37,10.48-10.04,20.47-13.98,29.97c-3.94,9.5-7.03,18.19-9.27,26.07
		c-2.24,7.89-3.36,14.34-3.36,19.35c0,1.43,0.09,2.55,0.27,3.36c0.18,0.81,0.4,1.52,0.67,2.15c0.27,0.63,0.54,1.25,0.81,1.88
		c0.27,0.63,0.4,1.48,0.4,2.55c0,1.43-1.04,1.97-3.12,1.61c-2.08-0.36-4.4-1.3-6.94-2.82c-2.54-1.52-4.86-3.49-6.95-5.91
		s-3.14-5.06-3.14-7.93c0-8.06,1.87-17.87,5.59-29.43c3.73-11.56,8.43-23.61,14.11-36.15c5.68-12.54,11.97-25,18.87-37.36
		c6.9-12.36,13.57-23.47,20.03-33.33c6.45-9.85,12.27-17.83,17.47-23.92C294.57,32.12,298.34,29.07,300.67,29.07z"/>
	<path id="XMLID_53_" d="M372.7,154.06c-3.59,4.84-7.17,9.54-10.75,14.11c-3.59,4.57-7.22,8.69-10.89,12.36
		c-3.67,3.67-7.48,6.63-11.42,8.87c-3.94,2.24-8.04,3.36-12.3,3.36c-1.06,0-2.39-0.4-3.98-1.21c-1.59-0.81-3.18-1.88-4.77-3.23
		c-1.59-1.34-2.96-2.82-4.11-4.43c-1.15-1.61-1.72-3.31-1.72-5.11c0-2.69,0.44-5.91,1.32-9.68c0.88-3.76,2.03-7.7,3.44-11.83
		c-3.23,4.66-7.07,9.95-11.55,15.86c-4.48,5.91-9.04,11.47-13.69,16.66c-4.65,5.2-9.18,9.54-13.56,13.04
		c-4.38,3.49-8.01,5.24-10.87,5.24c-1.79,0-3.53-0.63-5.24-1.88c-1.7-1.26-3.22-2.87-4.57-4.84c-1.34-1.97-2.41-4.12-3.22-6.45
		c-0.8-2.33-1.2-4.57-1.2-6.72c0-2.69,1.03-6.41,3.09-11.16c2.06-4.75,4.8-9.85,8.2-15.32c3.41-5.46,7.26-11.02,11.56-16.66
		c4.3-5.65,8.6-10.75,12.9-15.32c4.3-4.57,8.47-8.29,12.5-11.15c4.03-2.87,7.57-4.3,10.62-4.3c1.94,0,3.97,0.58,6.09,1.75
		c2.12,1.17,4.06,2.55,5.83,4.17c1.76,1.61,3.22,3.23,4.37,4.84c1.15,1.61,1.72,2.87,1.72,3.76c0,1.97-0.89,2.96-2.68,2.96
		c-1.43,0-2.36-0.49-2.81-1.48c-0.44-0.98-1.74-1.48-3.88-1.48c-1.07,0-2.81,1.08-5.22,3.23c-2.41,2.15-5.17,4.93-8.29,8.33
		c-3.12,3.41-6.33,7.26-9.63,11.56c-3.3,4.3-6.29,8.6-8.96,12.9c-2.67,4.3-4.9,8.33-6.69,12.1c-1.78,3.76-2.67,6.9-2.67,9.41
		c0,1.79,0.71,2.69,2.14,2.69c0.71,0,2.23-1.12,4.54-3.36c2.32-2.24,4.99-5.06,8.02-8.47c3.03-3.4,6.28-7.16,9.76-11.29
		c3.48-4.12,6.73-8.02,9.76-11.69c3.03-3.67,5.61-6.85,7.75-9.54c2.14-2.69,3.47-4.39,4.01-5.11c1.78-2.33,3.03-3.49,3.74-3.49
		c1.61,0,3.36,0.36,5.24,1.08c1.88,0.72,3.58,1.66,5.11,2.82c1.52,1.17,2.82,2.51,3.9,4.03c1.08,1.52,1.61,3,1.61,4.43
		c0,1.08-0.77,3.14-2.29,6.18c-1.52,3.05-3.18,6.36-4.97,9.94c-1.79,3.59-3.45,7.04-4.97,10.35c-1.52,3.32-2.28,5.78-2.28,7.39
		c0,1.44,0.54,2.15,1.61,2.15c2.33,0,4.79-0.94,7.39-2.82c2.59-1.88,5.38-4.39,8.33-7.53c2.96-3.13,6-6.72,9.14-10.75
		c3.13-4.03,6.4-8.29,9.81-12.77L372.7,154.06z"/>
	<path id="XMLID_51_" d="M445,119.92c0,2.51-1.3,5.78-3.9,9.81c-2.6,4.03-6.09,8.51-10.48,13.44c-4.39,4.93-9.5,10.17-15.32,15.73
		c-5.82,5.56-11.96,11.11-18.41,16.66c2.51,5.2,5.37,10.17,8.6,14.92c3.23,4.75,6.9,9.09,11.02,13.04c1.08,0.89,0.76,2.02-0.94,3.36
		c-1.71,1.34-4.8,2.02-9.27,2.02c-2.15,0-5.33-1.97-9.54-5.91c-4.21-3.94-8.56-9.31-13.04-16.13c-6.45,5.2-12.81,10.13-19.08,14.78
		s-12.05,8.74-17.34,12.23c-5.28,3.49-9.94,6.27-13.98,8.33c-4.03,2.06-7.03,3.09-9,3.09c-0.89,0-1.83-0.32-2.82-0.94
		c-0.98-0.63-1.83-1.34-2.55-2.15c-0.71-0.81-1.12-1.52-1.21-2.15c-0.09-0.63,0.31-0.94,1.21-0.94c2.33,0,5.6-1.08,9.81-3.23
		c4.21-2.15,8.96-5.11,14.25-8.87c5.29-3.76,10.93-8.2,16.93-13.31c6.01-5.11,11.96-10.62,17.88-16.53
		c-4.48-8.06-8.29-17.02-11.42-26.88c-3.13-9.85-4.7-20.34-4.7-31.45c0-2.15,1.17-3.99,3.49-5.51c2.33-1.52,4.93-2.69,7.8-3.49
		c2.86-0.81,5.46-1.25,7.79-1.34c2.33-0.09,3.49,0.32,3.49,1.21c0,7.89,0.54,16.4,1.61,25.54c1.08,9.14,3.04,18.19,5.91,27.15
		c8.42-9.68,15.45-19.35,21.1-29.03c5.65-9.68,8.47-18.45,8.47-26.34c0-2.87-0.27-5.33-0.81-7.39c-0.54-2.06,0.36-3.09,2.69-3.09
		c1.79,0,3.94,0.72,6.45,2.15c2.51,1.44,4.88,3.27,7.12,5.51c2.24,2.24,4.17,4.75,5.78,7.53C444.19,114.5,445,117.23,445,119.92z"/>
</g>
<g id="XMLID_27_">
</g>
<g id="XMLID_28_">
</g>
<g id="XMLID_29_">
</g>
<g id="XMLID_30_">
</g>
<g id="XMLID_31_">
</g>
<g id="XMLID_32_">
</g>
<g id="XMLID_33_">
</g>
<g id="XMLID_34_">
</g>
<g id="XMLID_35_">
</g>
<g id="XMLID_36_">
</g>
<g id="XMLID_37_">
</g>
<g id="XMLID_38_">
</g>
<g id="XMLID_39_">
</g>
<g id="XMLID_40_">
</g>
<g id="XMLID_41_">
</g>
</svg>
