<?xml version="1.0" encoding="utf-8"?>
<!-- Generator: Adobe Illustrator 19.0.0, SVG Export Plug-In . SVG Version: 6.00 Build 0)  -->
<svg version="1.1" id="Слой_1" xmlns="http://www.w3.org/2000/svg" xmlns:xlink="http://www.w3.org/1999/xlink" x="0px" y="0px"
	 width="1000px" height="1000px" viewBox="0 0 1000 1000" style="enable-background:new 0 0 1000 1000;" xml:space="preserve">
<style type="text/css">
	.st0{fill:#FFBACD;}
	.st1{fill:#FFFFFF;}
</style>
<g id="XMLID_34_">
	<g id="XMLID_31_">
		<g id="XMLID_1_">
			<path id="XMLID_76_" class="st0" d="M60.79,71.489H46.37c-0.38,0-0.69-0.31-0.69-0.69v-30.5c0-0.38,0.31-0.69,0.69-0.69H60.1
				c0.38,0,0.69,0.31,0.69,0.69V71.489z"/>
			<path id="XMLID_56_" class="st0" d="M44.95,37.099H30.99c-0.38,0-0.69-0.31-0.69-0.69v-9.02c0-0.38,0.31-0.69,0.69-0.69h13.96
				c0.38,0,0.69,0.31,0.69,0.69v9.02C45.64,36.789,45.33,37.099,44.95,37.099z"/>
			<path id="XMLID_55_" class="st0" d="M31.51,71.489H15.84c-0.38,0-0.69-0.31-0.69-0.69v-30.5c0-0.38,0.31-0.69,0.69-0.69h13.73
				c0.38,0,0.69,0.31,0.69,0.69v22.41c0,0.69,0.56,1.25,1.26,1.25l-0.01,2.51c-0.7,0-1.26,0.56-1.26,1.26
				c0,0.69,0.56,1.26,1.26,1.26V71.489z"/>
		</g>
		<path id="XMLID_57_" d="M13.2,37.099h13.9c0.38,0,0.69-0.31,0.69-0.69v-9.02c0-0.38-0.31-0.69-0.69-0.69H13.2
			c-0.38,0-0.69,0.31-0.69,0.69v9.02C12.51,36.789,12.82,37.099,13.2,37.099z M46.37,71.489h14.42v-31.19
			c0-0.38-0.31-0.69-0.69-0.69H46.37c-0.38,0-0.69,0.31-0.69,0.69v30.5C45.68,71.179,45.99,71.489,46.37,71.489z M48.84,26.699
			c-0.38,0-0.69,0.31-0.69,0.69v9.02c0,0.38,0.31,0.69,0.69,0.69h13.91c0.38,0,0.69-0.31,0.69-0.69v-9.02
			c0-0.38-0.31-0.69-0.69-0.69H48.84z M61.36,73.999H14.59c-1.07,0-1.95-0.88-1.95-1.95v-31.75c0-0.38-0.31-0.69-0.69-0.69h-0.01
			c-1.07,0-1.94-0.87-1.94-1.94v-11.54c0-1.07,0.87-1.94,1.94-1.94h5.25c0.57,0,0.92-0.66,0.56-1.11c-0.47-0.58-0.87-1.23-1.19-1.93
			c-0.29-0.63-0.02-1.37,0.61-1.66c0.17-0.08,0.35-0.12,0.53-0.12c0.47,0,0.93,0.27,1.14,0.73c1.14,2.49,3.68,4.09,6.46,4.09h9.47
			c0.53,0,0.87-0.57,0.61-1.03c-2.15-3.88-5.77-9.31-9.08-10.45c-0.05-0.01-0.09-0.03-0.14-0.03c-1.71-0.34-3.53-0.14-5.03,0.56
			c-0.56,0.27-1.24,0.07-1.58-0.44c-0.03-0.05-0.06-0.1-0.09-0.16c-0.29-0.63-0.02-1.38,0.61-1.67c2.05-0.96,4.44-1.22,6.74-0.72
			c0.04,0,0.07,0.01,0.11,0.02c2.68,0.84,5.56,3.59,8.55,8.17c0.72,1.11,1.37,2.19,1.9,3.14c0.27,0.47,0.94,0.47,1.2,0
			c0.54-0.95,1.18-2.03,1.9-3.14c3-4.58,5.88-7.33,8.55-8.17c0.04-0.01,0.08-0.02,0.11-0.02c4.53-0.98,9.22,1.06,10.67,4.63
			c0.4,0.99,0.53,2.19,0.38,3.48c-0.22,1.78-0.93,3.39-1.99,4.72c-0.35,0.45-0.01,1.11,0.56,1.11h5.26c1.07,0,1.94,0.87,1.94,1.94
			v11.53c0,1.07-0.88,1.95-1.95,1.95h-0.01c-0.38,0-0.69,0.31-0.69,0.69v31.76C63.3,73.129,62.43,73.999,61.36,73.999z
			 M30.99,37.099h13.96c0.38,0,0.69-0.31,0.69-0.69v-9.02c0-0.38-0.31-0.69-0.69-0.69H30.99c-0.38,0-0.69,0.31-0.69,0.69v9.02
			C30.3,36.789,30.61,37.099,30.99,37.099z M43.17,70.799v-30.5c0-0.38-0.31-0.69-0.69-0.69h-9.02c-0.38,0-0.69,0.31-0.69,0.69
			v22.41c0,0.69-0.56,1.25-1.25,1.25c-0.7,0-1.26-0.56-1.26-1.25v-22.41c0-0.38-0.31-0.69-0.69-0.69H15.84
			c-0.38,0-0.69,0.31-0.69,0.69v30.5c0,0.38,0.31,0.69,0.69,0.69h15.67h10.97C42.86,71.489,43.17,71.179,43.17,70.799z
			 M49.65,12.709c-3.31,1.14-6.94,6.57-9.09,10.45c-0.26,0.46,0.08,1.03,0.61,1.03h9.47c3.6,0,6.62-2.63,7.04-6.13
			c0.11-0.87,0.03-1.64-0.21-2.24c-0.97-2.4-4.4-3.8-7.68-3.14C49.74,12.679,49.7,12.699,49.65,12.709z"/>
		<path id="XMLID_54_" d="M31.51,66.469c0.7,0,1.26,0.56,1.26,1.26c0,0.69-0.56,1.26-1.26,1.26s-1.26-0.57-1.26-1.26
			C30.25,67.029,30.81,66.469,31.51,66.469z"/>
		<path id="XMLID_53_" d="M17.32,14.459c0.69,0,1.26,0.56,1.26,1.26c0,0.7-0.57,1.26-1.26,1.26c-0.7,0-1.26-0.56-1.26-1.26
			C16.06,15.019,16.62,14.459,17.32,14.459z"/>
	</g>
	<g id="XMLID_30_">
		<path id="XMLID_45_" class="st0" d="M168,27c0-6.075-4.925-11-11-11h-29c-6.075,0-11,4.925-11,11v29c0,6.075,4.925,11,11,11h29
			c6.075,0,11-4.925,11-11V27z M143.887,58.442c-8.88,0-16.079-7.199-16.079-16.079s7.199-16.079,16.079-16.079
			s16.079,7.199,16.079,16.079S152.767,58.442,143.887,58.442z"/>
		<g id="XMLID_40_">
			<g id="XMLID_24_">
				<g id="XMLID_25_">
					<path id="XMLID_26_" d="M157.137,10h-26.5c-10.339,0-18.75,8.411-18.75,18.75v26.5c0,10.339,8.411,18.75,18.75,18.75h26.5
						c10.339,0,18.75-8.411,18.75-18.75v-26.5C175.887,18.411,167.475,10,157.137,10z M173.387,55.25c0,8.96-7.29,16.25-16.25,16.25
						h-26.5c-8.96,0-16.25-7.29-16.25-16.25v-26.5c0-8.96,7.29-16.25,16.25-16.25h26.5c8.96,0,16.25,7.29,16.25,16.25V55.25z"/>
				</g>
			</g>
			<g id="XMLID_21_">
				<g id="XMLID_22_">
					<path id="XMLID_23_" d="M157.137,15.5h-26.5c-7.306,0-13.25,5.944-13.25,13.25v26.5c0,7.306,5.944,13.25,13.25,13.25h7.625
						c0.69,0,1.25-0.56,1.25-1.25s-0.56-1.25-1.25-1.25h-7.625c-5.928,0-10.75-4.823-10.75-10.75v-26.5
						c0-5.927,4.823-10.75,10.75-10.75h26.5c5.927,0,10.75,4.823,10.75,10.75v26.5c0,5.927-4.823,10.75-10.75,10.75h-7.542
						c-0.69,0-1.25,0.56-1.25,1.25s0.56,1.25,1.25,1.25h7.542c7.306,0,13.25-5.944,13.25-13.25v-26.5
						C170.387,21.444,164.443,15.5,157.137,15.5z"/>
				</g>
			</g>
			<g id="XMLID_18_">
				<g id="XMLID_19_">
					<path id="XMLID_20_" d="M144.77,66.366c-0.232-0.232-0.555-0.366-0.884-0.366s-0.651,0.134-0.884,0.366
						s-0.366,0.555-0.366,0.884s0.134,0.651,0.366,0.884s0.555,0.366,0.884,0.366s0.651-0.134,0.884-0.366s0.366-0.555,0.366-0.884
						S145.003,66.599,144.77,66.366z"/>
				</g>
			</g>
			<g id="XMLID_15_">
				<g id="XMLID_16_">
					<path id="XMLID_17_" d="M133.865,29.464c-0.472-0.504-1.263-0.53-1.767-0.058l-0.055,0.052
						c-0.502,0.474-0.525,1.265-0.051,1.767c0.246,0.261,0.577,0.392,0.909,0.392c0.308,0,0.616-0.113,0.858-0.341l0.049-0.046
						C134.312,30.759,134.337,29.968,133.865,29.464z"/>
				</g>
			</g>
			<g id="XMLID_12_">
				<g id="XMLID_13_">
					<path id="XMLID_14_" d="M143.887,24.75c-2.746,0-5.478,0.661-7.902,1.913c-0.613,0.317-0.854,1.071-0.537,1.684
						c0.317,0.613,1.071,0.854,1.684,0.537c2.101-1.084,4.374-1.634,6.755-1.634c8.133,0,14.75,6.617,14.75,14.75
						s-6.617,14.75-14.75,14.75c-8.133,0-14.75-6.617-14.75-14.75c0-2.552,0.662-5.067,1.914-7.272
						c0.341-0.6,0.131-1.363-0.47-1.704c-0.6-0.341-1.363-0.131-1.704,0.47c-1.465,2.581-2.24,5.522-2.24,8.507
						c0,9.512,7.738,17.25,17.25,17.25s17.25-7.738,17.25-17.25S153.398,24.75,143.887,24.75z"/>
				</g>
			</g>
			<g id="XMLID_7_">
				<g id="XMLID_8_">
					<path id="XMLID_9_" d="M143.887,30.75c-6.203,0-11.25,5.047-11.25,11.25s5.047,11.25,11.25,11.25
						c6.203,0,11.25-5.047,11.25-11.25S150.09,30.75,143.887,30.75z M143.887,50.75c-4.825,0-8.75-3.925-8.75-8.75
						s3.925-8.75,8.75-8.75c4.825,0,8.75,3.925,8.75,8.75S148.711,50.75,143.887,50.75z"/>
				</g>
			</g>
			<g id="XMLID_2_">
				<g id="XMLID_3_">
					<path id="XMLID_4_" d="M160.293,20.844c-2.619,0-4.75,2.131-4.75,4.75s2.131,4.75,4.75,4.75s4.75-2.131,4.75-4.75
						S162.912,20.844,160.293,20.844z M160.293,27.844c-1.241,0-2.25-1.009-2.25-2.25s1.009-2.25,2.25-2.25
						c1.241,0,2.25,1.009,2.25,2.25S161.534,27.844,160.293,27.844z"/>
				</g>
			</g>
		</g>
	</g>
	<g id="XMLID_32_">
		<path id="XMLID_29_" class="st1" d="M305.648,50.75l5.926-5.926c0.409-0.409,0.409-1.072,0-1.481l-5.926-5.926l-1.481,1.481
			l4.138,4.138h-25.757v2.095h25.757l-4.138,4.138L305.648,50.75z"/>
		<path id="XMLID_33_" class="st1" d="M221.595,49.269l-4.138-4.138h25.757v-2.095h-25.757l4.138-4.138l-1.481-1.481l-5.926,5.926
			c-0.409,0.409-0.409,1.072,0,1.481l5.926,5.926L221.595,49.269z"/>
	</g>
</g>
</svg>
