<?xml version="1.0" encoding="utf-8"?>
<!-- Generator: Adobe Illustrator 19.0.0, SVG Export Plug-In . SVG Version: 6.00 Build 0)  -->
<svg version="1.1" id="Слой_1" xmlns="http://www.w3.org/2000/svg" xmlns:xlink="http://www.w3.org/1999/xlink" x="0px" y="0px"
	 width="1000px" height="1000px" viewBox="0 0 1000 1000" style="enable-background:new 0 0 1000 1000;" xml:space="preserve">
<style type="text/css">
	.st0{fill:#FFBACD;}
	.st1{fill:#FFFFFF;}
	.st2{fill:#00AB1D;}
	.st3{fill:none;stroke:#000000;stroke-width:1.875;stroke-miterlimit:10;}
</style>
<path id="XMLID_76_" class="st0" d="M60.8,71.5H46.4c-0.4,0-0.7-0.3-0.7-0.7V40.3c0-0.4,0.3-0.7,0.7-0.7h13.7c0.4,0,0.7,0.3,0.7,0.7
	C60.8,40.3,60.8,71.5,60.8,71.5z"/>
<path id="XMLID_56_" class="st0" d="M45,37.1H31c-0.4,0-0.7-0.3-0.7-0.7v-9c0-0.4,0.3-0.7,0.7-0.7h14c0.4,0,0.7,0.3,0.7,0.7v9
	C45.6,36.8,45.3,37.1,45,37.1z"/>
<path id="XMLID_55_" class="st0" d="M31.5,71.5H15.8c-0.4,0-0.7-0.3-0.7-0.7V40.3c0-0.4,0.3-0.7,0.7-0.7h13.7c0.4,0,0.7,0.3,0.7,0.7
	v22.4c0,0.7,0.6,1.3,1.3,1.3l0,2.5c-0.7,0-1.3,0.6-1.3,1.3c0,0.7,0.6,1.3,1.3,1.3V71.5z"/>
<path id="XMLID_57_" d="M13.2,37.1h13.9c0.4,0,0.7-0.3,0.7-0.7v-9c0-0.4-0.3-0.7-0.7-0.7H13.2c-0.4,0-0.7,0.3-0.7,0.7v9
	C12.5,36.8,12.8,37.1,13.2,37.1z M46.4,71.5h14.4V40.3c0-0.4-0.3-0.7-0.7-0.7H46.4c-0.4,0-0.7,0.3-0.7,0.7v30.5
	C45.7,71.2,46,71.5,46.4,71.5z M48.8,26.7c-0.4,0-0.7,0.3-0.7,0.7v9c0,0.4,0.3,0.7,0.7,0.7h13.9c0.4,0,0.7-0.3,0.7-0.7v-9
	c0-0.4-0.3-0.7-0.7-0.7C62.8,26.7,48.8,26.7,48.8,26.7z M61.4,74H14.6c-1.1,0-1.9-0.9-1.9-1.9V40.3c0-0.4-0.3-0.7-0.7-0.7h0
	c-1.1,0-1.9-0.9-1.9-1.9V26.1c0-1.1,0.9-1.9,1.9-1.9h5.3c0.6,0,0.9-0.7,0.6-1.1c-0.5-0.6-0.9-1.2-1.2-1.9c-0.3-0.6,0-1.4,0.6-1.7
	c0.2-0.1,0.4-0.1,0.5-0.1c0.5,0,0.9,0.3,1.1,0.7c1.1,2.5,3.7,4.1,6.5,4.1h9.5c0.5,0,0.9-0.6,0.6-1c-2.2-3.9-5.8-9.3-9.1-10.4
	c0,0-0.1,0-0.1,0c-1.7-0.3-3.5-0.1-5,0.6c-0.6,0.3-1.2,0.1-1.6-0.4c0-0.1-0.1-0.1-0.1-0.2c-0.3-0.6,0-1.4,0.6-1.7
	c2-1,4.4-1.2,6.7-0.7c0,0,0.1,0,0.1,0c2.7,0.8,5.6,3.6,8.5,8.2c0.7,1.1,1.4,2.2,1.9,3.1c0.3,0.5,0.9,0.5,1.2,0c0.5-1,1.2-2,1.9-3.1
	c3-4.6,5.9-7.3,8.5-8.2c0,0,0.1,0,0.1,0c4.5-1,9.2,1.1,10.7,4.6c0.4,1,0.5,2.2,0.4,3.5c-0.2,1.8-0.9,3.4-2,4.7
	c-0.3,0.5,0,1.1,0.6,1.1H64c1.1,0,1.9,0.9,1.9,1.9v11.5c0,1.1-0.9,2-1.9,2h0c-0.4,0-0.7,0.3-0.7,0.7v31.8C63.3,73.1,62.4,74,61.4,74
	z M31,37.1h14c0.4,0,0.7-0.3,0.7-0.7v-9c0-0.4-0.3-0.7-0.7-0.7H31c-0.4,0-0.7,0.3-0.7,0.7v9C30.3,36.8,30.6,37.1,31,37.1z
	 M43.2,70.8V40.3c0-0.4-0.3-0.7-0.7-0.7h-9c-0.4,0-0.7,0.3-0.7,0.7v22.4c0,0.7-0.6,1.3-1.3,1.3c-0.7,0-1.3-0.6-1.3-1.3V40.3
	c0-0.4-0.3-0.7-0.7-0.7H15.8c-0.4,0-0.7,0.3-0.7,0.7v30.5c0,0.4,0.3,0.7,0.7,0.7h15.7h11C42.9,71.5,43.2,71.2,43.2,70.8z M49.7,12.7
	c-3.3,1.1-6.9,6.6-9.1,10.4c-0.3,0.5,0.1,1,0.6,1h9.5c3.6,0,6.6-2.6,7-6.1c0.1-0.9,0-1.6-0.2-2.2c-1-2.4-4.4-3.8-7.7-3.1
	C49.7,12.7,49.7,12.7,49.7,12.7z"/>
<path id="XMLID_54_" d="M31.5,66.5c0.7,0,1.3,0.6,1.3,1.3c0,0.7-0.6,1.3-1.3,1.3c-0.7,0-1.3-0.6-1.3-1.3
	C30.3,67,30.8,66.5,31.5,66.5z"/>
<path id="XMLID_53_" d="M17.3,14.5c0.7,0,1.3,0.6,1.3,1.3S18,17,17.3,17c-0.7,0-1.3-0.6-1.3-1.3C16.1,15,16.6,14.5,17.3,14.5z"/>
<path id="XMLID_45_" class="st0" d="M168,27c0-6.1-4.9-11-11-11h-29c-6.1,0-11,4.9-11,11v29c0,6.1,4.9,11,11,11h29
	c6.1,0,11-4.9,11-11V27z M143.9,58.4c-8.9,0-16.1-7.2-16.1-16.1s7.2-16.1,16.1-16.1S160,33.5,160,42.4S152.8,58.4,143.9,58.4z"/>
<path id="XMLID_26_" d="M157.1,10h-26.5c-10.3,0-18.8,8.4-18.8,18.8v26.5c0,10.3,8.4,18.8,18.8,18.8h26.5c10.3,0,18.8-8.4,18.8-18.8
	V28.8C175.9,18.4,167.5,10,157.1,10z M173.4,55.3c0,9-7.3,16.3-16.3,16.3h-26.5c-9,0-16.3-7.3-16.3-16.3V28.8
	c0-9,7.3-16.3,16.3-16.3h26.5c9,0,16.3,7.3,16.3,16.3V55.3z"/>
<path id="XMLID_23_" d="M157.1,15.5h-26.5c-7.3,0-13.3,5.9-13.3,13.3v26.5c0,7.3,5.9,13.3,13.3,13.3h7.6c0.7,0,1.3-0.6,1.3-1.3
	s-0.6-1.3-1.3-1.3h-7.6c-5.9,0-10.8-4.8-10.8-10.8V28.8c0-5.9,4.8-10.8,10.8-10.8h26.5c5.9,0,10.8,4.8,10.8,10.8v26.5
	c0,5.9-4.8,10.8-10.8,10.8h-7.5c-0.7,0-1.3,0.6-1.3,1.3s0.6,1.3,1.3,1.3h7.5c7.3,0,13.3-5.9,13.3-13.3V28.8
	C170.4,21.4,164.4,15.5,157.1,15.5z"/>
<path id="XMLID_20_" d="M144.8,66.4c-0.2-0.2-0.6-0.4-0.9-0.4s-0.6,0.1-0.9,0.4c-0.2,0.2-0.4,0.6-0.4,0.9s0.1,0.7,0.4,0.9
	s0.6,0.4,0.9,0.4s0.6-0.1,0.9-0.4c0.2-0.2,0.4-0.6,0.4-0.9S145,66.6,144.8,66.4z"/>
<path id="XMLID_17_" d="M133.9,29.5c-0.5-0.5-1.3-0.5-1.8-0.1l-0.1,0c-0.5,0.5-0.5,1.3-0.1,1.8c0.3,0.3,0.6,0.4,0.9,0.4
	c0.3,0,0.6-0.1,0.9-0.3l0.1,0C134.3,30.8,134.3,30,133.9,29.5z"/>
<path id="XMLID_14_" d="M143.9,24.8c-2.8,0-5.5,0.7-7.9,1.9c-0.6,0.3-0.9,1.1-0.5,1.7c0.3,0.6,1.1,0.9,1.7,0.5
	c2.1-1.1,4.4-1.6,6.8-1.6c8.1,0,14.8,6.6,14.8,14.7s-6.6,14.8-14.8,14.8s-14.8-6.6-14.8-14.8c0-2.5,0.7-5.1,1.9-7.3
	c0.3-0.6,0.1-1.4-0.5-1.7s-1.4-0.1-1.7,0.5c-1.5,2.6-2.2,5.5-2.2,8.5c0,9.5,7.7,17.3,17.3,17.3s17.3-7.7,17.3-17.3
	S153.4,24.8,143.9,24.8z"/>
<path id="XMLID_9_" d="M143.9,30.8c-6.2,0-11.3,5-11.3,11.3s5.1,11.3,11.3,11.3s11.3-5,11.3-11.3S150.1,30.8,143.9,30.8z
	 M143.9,50.8c-4.8,0-8.8-3.9-8.8-8.8s3.9-8.8,8.8-8.8s8.8,3.9,8.8,8.8S148.7,50.8,143.9,50.8z"/>
<path id="XMLID_29_" d="M160.3,20.8c-2.6,0-4.8,2.1-4.8,4.8s2.1,4.8,4.8,4.8s4.8-2.1,4.8-4.8S162.9,20.8,160.3,20.8z M160.3,27.8
	c-1.2,0-2.3-1-2.3-2.3s1-2.3,2.3-2.3s2.3,1,2.3,2.3S161.5,27.8,160.3,27.8z"/>
<path id="XMLID_33_" class="st1" d="M305.6,50.8l5.9-5.9c0.4-0.4,0.4-1.1,0-1.5l-5.9-5.9l-1.5,1.5l4.1,4.1h-25.8v2.1h25.8l-4.1,4.1
	L305.6,50.8z"/>
<path id="XMLID_34_" class="st1" d="M221.6,49.3l-4.1-4.1h25.8V43h-25.8l4.1-4.1l-1.5-1.5l-5.9,5.9c-0.4,0.4-0.4,1.1,0,1.5l5.9,5.9
	L221.6,49.3z"/>
<path id="XMLID_48_" d="M25.9,100.4c-1.5-1.5-3.3-2.3-5.4-2.6H13v14.6h-3v3.4h3v1.8h-3v3h3l0,0v3.7h3.4v-3.7h3v-3h-3v-1.8h3.1
	c2.5,0,4.6-0.9,6.4-2.7c1.8-1.8,2.6-3.9,2.6-6.4C28.6,104.3,27.7,102.2,25.9,100.4z M23.5,110.8c-1.1,1.1-2.4,1.6-3.9,1.6h-3.1
	v-11.2h3.1c1.5,0,2.8,0.5,3.9,1.6c1.1,1.1,1.6,2.4,1.6,3.9C25.1,108.4,24.6,109.7,23.5,110.8z"/>
<path id="XMLID_10_" class="st2" d="M25.9,148.2c-1.5-1.5-3.3-2.4-5.4-2.6H13v14.6h-3v3.4h3v1.8h-3v3h3l0,0v3.7h3.4v-3.7h3v-3h-3
	v-1.8h3.1c2.5,0,4.6-0.9,6.4-2.7c1.8-1.8,2.6-3.9,2.6-6.4C28.6,152.1,27.7,150,25.9,148.2z M23.5,158.5c-1.1,1.1-2.4,1.6-3.9,1.6
	h-3.1V149h3.1c1.5,0,2.8,0.5,3.9,1.6c1.1,1.1,1.6,2.4,1.6,3.9C25.1,156.1,24.6,157.4,23.5,158.5z"/>
<path id="XMLID_96_" class="st0" d="M277.6,123.1c-0.3,0-0.6,0.1-0.9,0.4c-0.2,0.2-0.4,0.6-0.4,0.9c0,0.3,0.1,0.7,0.4,0.9
	c0.2,0.2,0.6,0.4,0.9,0.4c0.3,0,0.6-0.1,0.9-0.4c0.2-0.2,0.4-0.6,0.4-0.9s-0.1-0.7-0.4-0.9C278.3,123.3,277.9,123.1,277.6,123.1z
	 M277.6,120.7c0.7,0,1.3-0.6,1.3-1.3v-2.9c2.5-0.6,4.2-2.9,4-5.5c-0.2-2.6-2.3-4.7-4.9-4.9c-1.5-0.1-2.9,0.4-4,1.4
	c-1.1,1-1.7,2.4-1.7,3.9c0,0.7,0.6,1.3,1.3,1.3s1.3-0.6,1.3-1.3c0-0.8,0.3-1.5,0.9-2c0.6-0.5,1.3-0.8,2.1-0.7
	c1.4,0.1,2.5,1.2,2.6,2.6c0.1,1.4-0.8,2.6-2.2,2.9c-1.1,0.2-1.9,1.2-1.9,2.3v3C276.4,120.1,276.9,120.7,277.6,120.7z M278.8,99.8
	c8.6,0,15.7,7,15.7,15.7c0,5-2.3,9.5-6.3,12.5c-0.3,0.2-0.5,0.6-0.5,1v4.8l-3.1-3.1c-0.2-0.2-0.6-0.4-0.9-0.4c-0.1,0-0.3,0-0.4,0.1
	c-1.5,0.5-3,0.7-4.6,0.7h-3.2c-8.6,0-15.7-7-15.7-15.7s7-15.7,15.7-15.7L278.8,99.8L278.8,99.8z"/>
<path id="XMLID_93_" d="M278.5,123.5c0.2,0.2,0.4,0.6,0.4,0.9c0,0.3-0.1,0.7-0.4,0.9c-0.2,0.2-0.5,0.4-0.9,0.4
	c-0.3,0-0.6-0.1-0.9-0.4c-0.2-0.2-0.4-0.6-0.4-0.9s0.1-0.7,0.4-0.9c0.2-0.2,0.6-0.4,0.9-0.4C277.9,123.1,278.3,123.3,278.5,123.5z"
	/>
<path id="XMLID_92_" d="M282.9,111c0.2,2.6-1.5,4.9-4,5.5v2.9c0,0.7-0.6,1.3-1.3,1.3s-1.3-0.6-1.3-1.3v-3c0-1.1,0.8-2.1,1.9-2.3
	c1.4-0.3,2.3-1.5,2.2-2.9c-0.1-1.4-1.2-2.5-2.6-2.6c-0.8-0.1-1.5,0.2-2.1,0.7c-0.6,0.5-0.9,1.3-0.9,2c0,0.7-0.6,1.3-1.3,1.3
	s-1.3-0.6-1.3-1.3c0-1.5,0.6-2.9,1.7-3.9c1.1-1,2.5-1.5,4-1.4C280.6,106.3,282.7,108.4,282.9,111z"/>
<path id="XMLID_91_" d="M267.4,136.1c0.7,0,1.3,0.6,1.3,1.3s-0.6,1.3-1.3,1.3H241c-0.7,0-1.3-0.6-1.3-1.3s0.6-1.3,1.3-1.3H267.4z"/>
<path id="XMLID_89_" d="M266.5,143.4c0.2-0.2,0.5-0.4,0.9-0.4s0.6,0.1,0.9,0.4c0.2,0.2,0.4,0.6,0.4,0.9s-0.1,0.6-0.4,0.9
	c-0.2,0.2-0.6,0.4-0.9,0.4s-0.6-0.1-0.9-0.4c-0.2-0.2-0.4-0.6-0.4-0.9S266.3,143.7,266.5,143.4z"/>
<path id="XMLID_88_" d="M262.5,143.1c0.7,0,1.3,0.6,1.3,1.3s-0.6,1.3-1.3,1.3H241c-0.7,0-1.3-0.6-1.3-1.3s0.6-1.3,1.3-1.3H262.5z"/>
<path id="XMLID_83_" d="M257.5,115.5c0-10,8.1-18.2,18.2-18.2h3.2c10,0,18.2,8.2,18.2,18.2c0,2.9-0.7,5.7-2,8.2
	c-1.1,2.3-2.8,4.3-4.8,5.9v7.2c0,0.5-0.3,1-0.8,1.2c-0.2,0.1-0.3,0.1-0.5,0.1c-0.3,0-0.6-0.1-0.9-0.4l-4.7-4.7
	c-1.5,0.4-3,0.6-4.6,0.6h-3.2C265.7,133.7,257.5,125.5,257.5,115.5z M260,115.5c0,8.6,7,15.7,15.7,15.7h3.2c1.6,0,3.1-0.2,4.6-0.7
	c0.1,0,0.2-0.1,0.4-0.1c0.3,0,0.6,0.1,0.9,0.4l3.1,3.1V129c0-0.4,0.2-0.8,0.5-1c4-3,6.3-7.6,6.3-12.5c0-8.6-7-15.7-15.7-15.7h-3.2
	C267,99.8,260,106.9,260,115.5z"/>
<path id="XMLID_82_" d="M259.3,129.1c0.7,0,1.3,0.6,1.3,1.3s-0.6,1.3-1.3,1.3H241c-0.7,0-1.3-0.6-1.3-1.3s0.6-1.3,1.3-1.3H259.3z"/>
<path id="XMLID_80_" d="M241.8,155.8c-4.8,0-8.8-3.9-8.8-8.8v-19.3c0-4.8,3.9-8.8,8.8-8.8h12.6c0.7,0,1.3,0.6,1.3,1.3
	s-0.6,1.3-1.3,1.3h-12.6c-3.4,0-6.3,2.8-6.3,6.3v19.3c0,3.4,2.8,6.3,6.3,6.3h8.1c0.5,0,0.9,0.3,1.1,0.8l3,3v-2.5
	c0-0.7,0.6-1.3,1.3-1.3h13.5c3.4,0,6.3-2.8,6.3-6.3v-8.6c0-0.7,0.6-1.3,1.3-1.3s1.3,0.6,1.3,1.3v8.6c0,4.8-3.9,8.8-8.8,8.8h-12.3
	v4.3c0,0.5-0.3,1-0.8,1.2c-0.2,0.1-0.3,0.1-0.5,0.1c-0.3,0-0.6-0.1-0.9-0.4l-5.1-5.1H241.8z"/>
<path id="XMLID_46_" class="st0" d="M414.5,128.4c-1-0.1-2-0.6-2.6-1.3c-0.5-0.6-0.8-1.3-0.8-2.1c0-0.3,0-0.5,0-0.8l0-0.1
	c0.2-1.5,1.3-2.8,2.7-3.2l4.4-1.3c1.3-0.4,2.2-1.7,2-3c-0.1-0.6-0.2-1.3-0.3-1.9c-1.3-8-2.6-11.4-3.1-12.4
	c-1.6-0.5-7.5-2.1-15.3-1.1c-0.1,0-0.1,0.1-0.1,0.2l0.6,4.9c0.3,2.3-1.4,4.3-3.6,4.6c-1.2,0.1-2.3-0.2-3.2-1
	c-0.2-0.2-0.4-0.4-0.6-0.6c-0.5-0.7-0.8-1.5-0.9-2.4l-0.3-5.8c-2.2,0-4.3,0.2-6.3,0.5c-1.2,0.2-2.1,1.3-1.9,2.6l1,7.8
	c0.3,1.9-0.8,3.7-2.6,4.4c-1.1,0.4-2.4,0.3-3.4-0.3c-1-0.6-1.8-1.6-2-2.8l-1.8-8.5c-1.7,0.8-3.2,1.8-4.6,2.8
	c-1.3,0.9-1.8,2.6-1.2,4.1l3,8.4c0.7,2.1-0.1,4.4-2,5.5c-1.3,0.7-2.8,0.8-4.1,0.2c-1.3-0.6-2.3-1.8-2.6-3.2l-1.1-5.2
	c-2.5,5.2-2.8,11-0.8,16.2c1.9,4.9,5.7,8.5,10.6,10.3l19.9-19.9c-2.1-4.3-3.3-8.8-3.6-13.6l0-0.2c0-0.7,0.5-1.3,1.2-1.3
	c0.4,0,0.8,0.2,1.1,0.5c0.1,0.2,0.2,0.4,0.2,0.7v0.2c0.2,4.1,1.2,8.1,3,11.8l11.2-11.2c0.5-0.5,1.3-0.5,1.8,0s0.5,1.3,0,1.8
	l-14.3,14.3c3.3,1.5,6.8,2.6,10.4,3.1c0.4,0.1,0.9,0.1,1.3,0.2c0.7,0.1,1.2,0.7,1.1,1.4c-0.1,0.6-0.6,1.1-1.2,1.1c0,0-0.1,0-0.2,0
	c-4.6-0.6-9-1.9-13.2-3.9l-16.8,16.8c2.9,7.9,10.7,12.6,19.2,11.8l-5.4-3.7c-1-0.6-1.6-1.6-1.8-2.8c-0.2-1.1,0.1-2.3,0.8-3.2
	c0.7-0.9,1.7-1.6,2.9-1.7s2.3,0.2,3.2,0.9l9.4,7.4c2.1-1.4,6.6-4.4,9.7-8.1l-7.9-3.3c-1.8-0.8-2.9-2.7-2.6-4.6
	c0.4-2.2,2.3-3.7,4.5-3.6c2.6,0.2,6.4,0.5,9.1,0.6c1.5,0.1,2.9-0.9,3.3-2.4c0.3-1.4,0.6-2.8,0.8-4.2L414.5,128.4z M376.8,135.6
	c-0.5,0.8-1.3,1.4-2.2,1.6c-0.3,0.1-0.6,0.1-0.9,0.1c-0.6,0-1.3-0.2-1.8-0.5c-0.8-0.5-1.4-1.3-1.6-2.2l-0.2-0.6
	c-0.5-1.9,0.7-3.9,2.6-4.4c0.9-0.2,1.9-0.1,2.7,0.4c0.8,0.5,1.4,1.3,1.6,2.2l0.1,0.6C377.4,133.8,377.3,134.8,376.8,135.6z
	 M381.1,131.2c-0.2,0.1-0.4,0.2-0.6,0.2c-0.4,0-0.8-0.2-1.1-0.6c-2.1-3.5-3.6-7.3-4.3-11.3l-0.3-1.5c-0.1-0.7,0.3-1.3,1-1.4
	c0.7-0.1,1.3,0.3,1.4,1l0.3,1.5c0.6,3.7,2,7.2,3.9,10.5C381.8,130.1,381.6,130.9,381.1,131.2z M387.5,124.8
	c-0.5,0.8-1.3,1.3-2.3,1.6c-0.3,0.1-0.5,0.1-0.8,0.1c-0.7,0-1.4-0.2-1.9-0.6c-0.8-0.5-1.4-1.3-1.5-2.3l-0.1-0.6
	c-0.4-1.9,0.8-3.8,2.8-4.3s3.8,0.8,4.3,2.8l0.1,0.6C388.2,123,388,124,387.5,124.8z M385.4,142.8l-4.1,4.1c-0.2,0.2-0.6,0.4-0.9,0.4
	s-0.6-0.1-0.9-0.4c-0.5-0.5-0.5-1.3,0-1.8l4.1-4.1c0.5-0.5,1.3-0.5,1.8,0C385.9,141.6,385.9,142.4,385.4,142.8z M387.9,140.3
	c-0.2,0.2-0.6,0.4-0.9,0.4c-0.3,0-0.6-0.1-0.9-0.4s-0.4-0.6-0.4-0.9s0.1-0.6,0.4-0.9c0.2-0.2,0.5-0.4,0.9-0.4c0.3,0,0.7,0.1,0.9,0.4
	c0.2,0.2,0.4,0.6,0.4,0.9S388.1,140.1,387.9,140.3z M399.8,138.2c-0.1,0.9-0.6,1.8-1.3,2.4c-0.6,0.5-1.4,0.8-2.2,0.8
	c-0.1,0-0.3,0-0.4,0l-1.3-0.1c-1.9-0.2-3.4-2-3.1-3.9c0.2-1.9,2-3.4,3.9-3.1l1.3,0.1c0.9,0.1,1.8,0.6,2.4,1.3
	C399.6,136.3,399.9,137.2,399.8,138.2z M410.3,107.2c0.2-0.2,0.6-0.4,0.9-0.4c0.3,0,0.6,0.1,0.9,0.4s0.4,0.6,0.4,0.9
	c0,0.3-0.1,0.7-0.4,0.9c-0.2,0.2-0.6,0.4-0.9,0.4c-0.3,0-0.7-0.1-0.9-0.4s-0.4-0.6-0.4-0.9C409.9,107.7,410,107.4,410.3,107.2z
	 M405.8,128.9h-1c-0.1,0-0.3,0-0.4,0c-1.9-0.2-3.4-1.8-3.4-3.7c0-2.1,1.7-3.7,3.7-3.7h1c2.1,0,3.7,1.7,3.7,3.7
	S407.9,128.9,405.8,128.9z"/>
<path id="XMLID_202_" d="M410.3,107.2c0.2-0.2,0.6-0.4,0.9-0.4c0.3,0,0.6,0.1,0.9,0.4s0.4,0.6,0.4,0.9c0,0.3-0.1,0.7-0.4,0.9
	c-0.2,0.2-0.6,0.4-0.9,0.4c-0.3,0-0.7-0.1-0.9-0.4s-0.4-0.6-0.4-0.9C409.9,107.7,410,107.4,410.3,107.2z"/>
<path id="XMLID_182_" d="M405.8,126.3c0.7,0,1.2-0.6,1.2-1.2s-0.5-1.2-1.2-1.2h-1c-0.7,0-1.2,0.6-1.2,1.2s0.5,1.2,1.2,1.2H405.8z
	 M405.8,121.4c2.1,0,3.7,1.7,3.7,3.7s-1.7,3.7-3.7,3.7h-1c-0.1,0-0.3,0-0.4,0c-1.9-0.2-3.4-1.8-3.4-3.7c0-2.1,1.7-3.7,3.7-3.7H405.8
	z"/>
<path id="XMLID_177_" d="M398.5,140.6c-0.6,0.5-1.4,0.8-2.2,0.8c-0.1,0-0.3,0-0.4,0l-1.3-0.1c-1.9-0.2-3.4-2-3.1-3.9
	c0.2-1.9,2-3.4,3.9-3.1l1.3,0.1c0.9,0.1,1.8,0.6,2.4,1.3s0.9,1.7,0.8,2.6C399.7,139.1,399.2,140,398.5,140.6z M397.1,137.1
	c-0.2-0.2-0.4-0.4-0.7-0.4l-1.3-0.1c-0.6-0.1-1.1,0.4-1.2,0.9c-0.1,0.6,0.4,1.1,0.9,1.2l1.3,0.1c0.3,0,0.5-0.1,0.8-0.2
	c0.2-0.2,0.4-0.4,0.4-0.7S397.2,137.3,397.1,137.1z"/>
<path id="XMLID_176_" d="M387.9,138.6c0.2,0.2,0.4,0.6,0.4,0.9s-0.1,0.6-0.4,0.9c-0.2,0.2-0.6,0.4-0.9,0.4s-0.6-0.1-0.9-0.4
	s-0.4-0.6-0.4-0.9s0.1-0.6,0.4-0.9c0.2-0.2,0.5-0.4,0.9-0.4S387.7,138.3,387.9,138.6z"/>
<path id="XMLID_147_" d="M384.7,123.9c0.3-0.1,0.5-0.2,0.7-0.5c0.2-0.3,0.2-0.5,0.1-0.8l-0.1-0.6c-0.1-0.5-0.6-0.9-1.1-0.9
	c-0.1,0-0.1,0-0.2,0c-0.3,0.1-0.5,0.2-0.7,0.5c-0.2,0.2-0.2,0.5-0.1,0.8l0.1,0.6c0.1,0.3,0.2,0.5,0.5,0.7
	C384.2,123.9,384.5,123.9,384.7,123.9z M380.9,123c-0.4-1.9,0.8-3.8,2.8-4.3s3.8,0.8,4.3,2.8l0.1,0.6c0.2,0.9,0,1.9-0.5,2.7
	c-0.5,0.8-1.3,1.3-2.3,1.6c-0.3,0.1-0.5,0.1-0.8,0.1c-0.7,0-1.4-0.2-1.9-0.6c-0.8-0.5-1.4-1.3-1.5-2.3L380.9,123z"/>
<path id="XMLID_144_" d="M385.4,142.8l-4.1,4.1c-0.2,0.2-0.6,0.4-0.9,0.4s-0.6-0.1-0.9-0.4c-0.5-0.5-0.5-1.3,0-1.8l4.1-4.1
	c0.5-0.5,1.3-0.5,1.8,0C385.9,141.6,385.9,142.4,385.4,142.8z"/>
<path id="XMLID_143_" d="M377.5,119.1c0.6,3.7,2,7.2,3.9,10.4c0.4,0.6,0.2,1.4-0.4,1.7c-0.2,0.1-0.4,0.2-0.6,0.2
	c-0.4,0-0.8-0.2-1.1-0.6c-2.1-3.5-3.6-7.3-4.3-11.3l-0.3-1.5c-0.1-0.7,0.3-1.3,1-1.4c0.7-0.1,1.3,0.3,1.4,1L377.5,119.1z"/>
<path id="XMLID_139_" d="M374,134.8c0.3-0.1,0.5-0.3,0.7-0.5s0.2-0.5,0.1-0.8l-0.2-0.6c-0.1-0.5-0.6-0.8-1-0.8c-0.1,0-0.2,0-0.3,0
	c-0.6,0.1-0.9,0.7-0.8,1.3l0.2,0.6C372.8,134.6,373.4,134.9,374,134.8z M370.1,134c-0.5-1.9,0.7-3.9,2.6-4.4
	c0.9-0.2,1.9-0.1,2.7,0.4c0.8,0.5,1.4,1.3,1.6,2.2l0.1,0.6c0.2,0.9,0.1,1.9-0.4,2.7c-0.5,0.8-1.3,1.4-2.2,1.6
	c-0.3,0.1-0.6,0.1-0.9,0.1c-0.6,0-1.3-0.2-1.8-0.5c-0.8-0.5-1.4-1.3-1.6-2.2L370.1,134z"/>
<path id="XMLID_133_" d="M403.4,154.4c2.1-1.4,6.6-4.4,9.7-8.1l-7.9-3.3c-1.8-0.8-2.9-2.7-2.6-4.6c0.4-2.2,2.3-3.7,4.5-3.6
	c2.6,0.2,6.4,0.5,9.1,0.6c1.5,0.1,2.9-0.9,3.3-2.4c0.3-1.4,0.6-2.8,0.8-4.2l-5.8-0.4c-1-0.1-2-0.6-2.6-1.3c-0.5-0.6-0.8-1.3-0.8-2.1
	c0-0.3,0-0.5,0-0.8l0-0.1c0.2-1.5,1.3-2.8,2.7-3.2l4.4-1.3c1.3-0.4,2.2-1.7,2-3c-0.1-0.6-0.2-1.3-0.3-1.9c-1.3-8-2.6-11.4-3.1-12.4
	c-1.6-0.5-7.5-2.1-15.3-1.1c-0.1,0-0.1,0.1-0.1,0.2l0.6,4.9c0.3,2.3-1.4,4.3-3.6,4.6c-1.2,0.1-2.3-0.2-3.2-1
	c-0.2-0.2-0.4-0.4-0.6-0.6c-0.5-0.7-0.8-1.5-0.9-2.4l-0.3-5.8c-2.2,0-4.3,0.2-6.3,0.5c-1.2,0.2-2.1,1.3-1.9,2.6l1,7.8
	c0.3,1.9-0.8,3.7-2.6,4.4c-1.1,0.4-2.4,0.3-3.4-0.3c-1-0.6-1.8-1.6-2-2.8l-1.8-8.5c-1.7,0.8-3.2,1.8-4.6,2.8
	c-1.3,0.9-1.8,2.6-1.2,4.1l3,8.4c0.7,2.1-0.1,4.4-2,5.5c-1.3,0.7-2.8,0.8-4.1,0.2c-1.3-0.6-2.3-1.8-2.6-3.2l-1.1-5.2
	c-2.5,5.2-2.8,11-0.8,16.2c1.9,4.9,5.7,8.5,10.6,10.3l19.9-19.9c-2.1-4.3-3.3-8.8-3.6-13.6l0-0.2c0-0.7,0.5-1.3,1.2-1.3
	c0.4,0,0.8,0.2,1.1,0.5c0.1,0.2,0.2,0.4,0.2,0.7v0.2c0.2,4.1,1.2,8.1,3,11.8l11.2-11.2c0.5-0.5,1.3-0.5,1.8,0s0.5,1.3,0,1.8
	l-14.3,14.3c3.3,1.5,6.8,2.6,10.4,3.1c0.4,0.1,0.9,0.1,1.3,0.2c0.7,0.1,1.2,0.7,1.1,1.4c-0.1,0.6-0.6,1.1-1.2,1.1c0,0-0.1,0-0.2,0
	c-4.6-0.6-9-1.9-13.2-3.9l-16.8,16.8c2.9,7.9,10.7,12.6,19.2,11.8l-5.4-3.7c-1-0.6-1.6-1.6-1.8-2.8c-0.2-1.1,0.1-2.3,0.8-3.2
	c0.7-0.9,1.7-1.6,2.9-1.7s2.3,0.2,3.2,0.9L403.4,154.4z M416.1,146.6c-3.8,5.1-10.3,9.3-12.2,10.5c-0.5,0.3-1,0.2-1.4-0.1l-10.1-8
	c-0.4-0.3-0.9-0.4-1.3-0.4c-0.5,0.1-0.9,0.3-1.2,0.7c-0.3,0.4-0.4,0.9-0.3,1.3c0.1,0.5,0.3,0.9,0.7,1.2l8,5.4
	c0.4,0.3,0.6,0.8,0.5,1.3c-0.1,0.5-0.5,0.9-0.9,1c-1.8,0.4-3.6,0.7-5.4,0.7c-3.5,0-6.9-0.8-9.9-2.4c-4.2-2.2-7.5-5.7-9.3-10.1
	l-6.1,6.1c-0.2,0.2-0.6,0.4-0.9,0.4s-0.6-0.1-0.9-0.4c-0.5-0.5-0.5-1.3,0-1.8l6.1-6.1c-5.1-2.1-8.9-6.1-11-11.3
	c-2.5-6.2-1.9-13.3,1.5-19.4c0.3-0.6,0.7-1.2,1.1-1.8c0.3-0.4,0.8-0.6,1.3-0.5c0.5,0.1,0.9,0.5,1,1l1.8,8.3c0.1,0.7,0.6,1.2,1.2,1.4
	c0.6,0.3,1.3,0.2,1.9-0.1c0.9-0.5,1.3-1.5,0.9-2.5l-3-8.4c-0.9-2.5,0-5.3,2.1-6.9c2-1.5,4.2-2.7,6.6-3.8c0.3-0.2,0.7-0.1,1.1,0
	c0.3,0.2,0.6,0.5,0.6,0.8l2.1,10.1c0.1,0.5,0.4,0.9,0.8,1.1c0.4,0.2,0.9,0.3,1.3,0.1c0.7-0.3,1.1-1,1-1.7l-1-7.8
	c-0.4-2.6,1.5-5,4-5.4c2.5-0.4,5.1-0.5,7.8-0.5c0.7,0,1.2,0.5,1.2,1.2l0.3,7c0,0.5,0.2,0.9,0.6,1.2c0.4,0.3,0.8,0.4,1.3,0.4
	c0.9-0.1,1.6-0.9,1.5-1.9l-0.6-4.9c-0.2-1.4,0.9-2.7,2.3-2.9c9.7-1.3,16.6,1.3,16.9,1.4c0.3,0.1,0.5,0.3,0.6,0.5
	c0.2,0.3,1.9,3.3,3.6,13.7c0.1,0.7,0.2,1.3,0.3,2c0.3,2.6-1.3,5.1-3.8,5.8l-4.4,1.3c-0.5,0.1-0.9,0.6-0.9,1.1l0,0.1
	c0,0.3,0.1,0.7,0.3,0.9c0.2,0.3,0.5,0.4,0.9,0.4l7.1,0.5c0.3,0,0.6,0.2,0.9,0.4c0.2,0.3,0.3,0.6,0.3,0.9c-0.2,2-0.5,4-1,5.8
	c-0.6,2.7-3.1,4.5-5.9,4.3c-2.8-0.2-6.6-0.5-9.2-0.6c-0.9-0.1-1.7,0.6-1.9,1.5c-0.1,0.8,0.3,1.6,1.1,1.9l9.4,4
	c0.4,0.1,0.6,0.4,0.7,0.8C416.4,145.9,416.4,146.3,416.1,146.6z"/>
<path id="XMLID_151_" class="st0" d="M517,117c2.9,0,5.2,2.3,5.2,5.2c0,2.9-2.3,5.2-5.2,5.2s-5.2-2.3-5.2-5.2
	C511.8,119.4,514.2,117,517,117z"/>
<path id="XMLID_52_" class="st0" d="M535.8,105.3h-48.3v33.9h48.3h10.6v-33.9H535.8z M490.2,107.3L490.2,107.3
	c0.7-0.4,1.5-0.2,1.8,0.3c0.4,0.6,0.2,1.4-0.4,1.8l-0.1,0c-0.2,0.1-0.5,0.2-0.7,0.2c-0.4,0-0.8-0.2-1.1-0.6
	C489.4,108.5,489.6,107.7,490.2,107.3z M491.6,137.5L491.6,137.5c-0.3,0.2-0.5,0.2-0.8,0.2c-0.4,0-0.8-0.2-1.1-0.6
	c-0.4-0.6-0.2-1.4,0.4-1.8l0.1,0c0.6-0.4,1.4-0.2,1.8,0.4C492.4,136.4,492.2,137.1,491.6,137.5z M537.1,134.9
	C537.1,134.9,537.1,134.9,537.1,134.9v0.1c0,0.3-0.1,0.7-0.4,0.9c-0.2,0.2-0.6,0.4-0.9,0.4h-37.6c-0.3,0-0.7-0.1-0.9-0.4
	c-0.2-0.3-0.4-0.6-0.4-0.9l0-0.1c0,0,0,0,0-0.1c0-2.7-2.2-5-5-5c-0.7,0-1.3-0.6-1.3-1.3v-12.9c0-0.7,0.6-1.3,1.3-1.3
	c2.7,0,5-2.2,5-5c0-0.7,0.6-1.3,1.3-1.3h3.4c0.7,0,1.3,0.6,1.3,1.3l2.6,0c0-0.4,0.2-0.8,0.6-1.1l0.1,0c0.6-0.4,1.4-0.2,1.8,0.4
	c0.1,0.2,0.2,0.4,0.2,0.7h2.5c0-0.7,0.6-1.3,1.3-1.3h23.9c0.7,0,1.3,0.6,1.3,1.3c0,2.7,2.2,5,5,5c0.7,0,1.3,0.6,1.3,1.3v12.9
	c0,0.7-0.6,1.3-1.3,1.3C539.3,129.9,537.1,132.1,537.1,134.9z M544,137.5L544,137.5c-0.3,0.2-0.5,0.3-0.8,0.3
	c-0.4,0-0.8-0.2-1.1-0.6c-0.4-0.6-0.2-1.4,0.4-1.8l0.1-0.1c0.6-0.4,1.4-0.2,1.8,0.4C544.8,136.3,544.6,137.1,544,137.5z M544,109.4
	L544,109.4c-0.3,0.2-0.5,0.2-0.8,0.2c-0.4,0-0.8-0.2-1.1-0.6c-0.4-0.6-0.2-1.4,0.4-1.8l0.1,0c0.6-0.4,1.4-0.2,1.8,0.4
	C544.8,108.2,544.6,109,544,109.4z"/>
<path id="XMLID_131_" d="M549,145.6c0,0.7-0.6,1.3-1.3,1.3h-5.9c-0.7,0-1.3-0.6-1.3-1.3s0.6-1.3,1.3-1.3h5.9
	C548.5,144.3,549,144.9,549,145.6z"/>
<path id="XMLID_130_" d="M547.8,153.3c0.7,0,1.3,0.6,1.3,1.3s-0.6,1.3-1.3,1.3h-61.5c-0.7,0-1.3-0.6-1.3-1.3s0.6-1.3,1.3-1.3H547.8z
	"/>
<path id="XMLID_129_" d="M547.8,148.8c0.7,0,1.3,0.6,1.3,1.3s-0.6,1.3-1.3,1.3h-61.5c-0.7,0-1.3-0.6-1.3-1.3s0.6-1.3,1.3-1.3H547.8z
	"/>
<path id="XMLID_128_" d="M544.4,135.7c0.4,0.6,0.2,1.4-0.4,1.7l-0.1,0.1c-0.2,0.1-0.5,0.2-0.7,0.2c-0.4,0-0.8-0.2-1.1-0.6
	c-0.4-0.6-0.2-1.4,0.4-1.8l0.1-0.1C543.3,135,544,135.1,544.4,135.7z"/>
<path id="XMLID_127_" d="M544.4,107.7c0.4,0.6,0.2,1.4-0.4,1.8l-0.1,0c-0.2,0.1-0.5,0.2-0.7,0.2c-0.4,0-0.8-0.2-1.1-0.6
	c-0.4-0.6-0.2-1.4,0.4-1.8l0.1,0C543.3,106.9,544,107.1,544.4,107.7z"/>
<path id="XMLID_126_" d="M536.6,146.8c-0.4,0-0.8-0.2-1.1-0.6c-0.4-0.6-0.2-1.4,0.4-1.8l0.1,0c0.6-0.4,1.4-0.2,1.8,0.4
	c0.4,0.6,0.2,1.4-0.4,1.8l-0.1,0C537.1,146.8,536.9,146.8,536.6,146.8z"/>
<path id="XMLID_125_" d="M531.6,144.3c0.7,0,1.3,0.6,1.3,1.3s-0.6,1.3-1.3,1.3h-45.3c-0.7,0-1.3-0.6-1.3-1.3s0.6-1.3,1.3-1.3H531.6z
	"/>
<path id="XMLID_122_" d="M522.2,122.3c0-2.9-2.3-5.2-5.2-5.2s-5.2,2.3-5.2,5.2c0,2.9,2.3,5.2,5.2,5.2S522.2,125.1,522.2,122.3z
	 M517,130c-4.3,0-7.8-3.5-7.8-7.7c0-4.3,3.5-7.8,7.8-7.8s7.7,3.5,7.7,7.8C524.8,126.5,521.3,130,517,130z"/>
<path id="XMLID_121_" d="M507.9,108.8c0.1,0.2,0.2,0.4,0.2,0.7c0,0.4-0.2,0.8-0.6,1.1l-0.1,0c-0.2,0.1-0.5,0.2-0.7,0.2
	c-0.4,0-0.8-0.2-1.1-0.6c-0.1-0.2-0.2-0.4-0.2-0.7c0-0.4,0.2-0.8,0.6-1.1l0.1,0C506.8,108.1,507.5,108.2,507.9,108.8z"/>
<path id="XMLID_120_" d="M535.8,136.3h-37.6c-0.3,0-0.7-0.1-0.9-0.4c-0.2-0.3-0.4-0.6-0.4-0.9l0-0.1c0,0,0,0,0-0.1c0-2.7-2.2-5-5-5
	c-0.7,0-1.3-0.6-1.3-1.3v-12.9c0-0.7,0.6-1.3,1.3-1.3c2.7,0,5-2.2,5-5c0-0.7,0.6-1.3,1.3-1.3h3.4c0.7,0,1.3,0.6,1.3,1.3
	s-0.6,1.3-1.3,1.3h-2.3c-0.5,3.1-3,5.6-6.1,6.1v10.6c3.2,0.5,5.7,3.1,6.1,6.3h35.3c0.5-3.2,3-5.7,6.1-6.3v-10.6
	c-3.1-0.5-5.6-3-6.1-6.1h-22.8c-0.7,0-1.3-0.6-1.3-1.3s0.6-1.3,1.3-1.3h23.9c0.7,0,1.3,0.6,1.3,1.3c0,2.7,2.2,5,5,5
	c0.7,0,1.3,0.6,1.3,1.3v12.9c0,0.7-0.6,1.3-1.3,1.3c-2.7,0-5,2.2-5,5c0,0,0,0,0,0.1v0.1c0,0.3-0.1,0.7-0.4,0.9
	C536.5,136.1,536.2,136.3,535.8,136.3z"/>
<path id="XMLID_119_" d="M492,107.7c0.4,0.6,0.2,1.4-0.4,1.8l-0.1,0c-0.2,0.1-0.5,0.2-0.7,0.2c-0.4,0-0.8-0.2-1.1-0.6
	c-0.4-0.6-0.2-1.4,0.4-1.8l0.1,0C490.8,106.9,491.6,107.1,492,107.7z"/>
<path id="XMLID_118_" d="M492,135.8c0.4,0.6,0.2,1.4-0.4,1.8l-0.1,0c-0.2,0.1-0.5,0.2-0.7,0.2c-0.4,0-0.8-0.2-1.1-0.6
	c-0.4-0.6-0.2-1.4,0.4-1.8l0.1,0C490.8,135,491.6,135.2,492,135.8z"/>
<path id="XMLID_115_" d="M546.5,139.2v-33.9h-10.7h-48.3v33.9h48.3H546.5z M547.8,141.7h-61.5c-0.7,0-1.3-0.6-1.3-1.3V104
	c0-0.7,0.6-1.3,1.3-1.3h61.5c0.7,0,1.3,0.6,1.3,1.3v36.4C549,141.1,548.5,141.7,547.8,141.7z"/>
<path id="XMLID_240_" d="M170.6,97.7c0.5,0.5,0.5,1.3,0,1.8l-5.4,5.4c2.4,3.2,2.4,7.5,0.1,10.6l4.5,4.4c0,0,0,0,0,0
	c1.5,1.5,1.5,3.8,0,5.3l-35.3,35.1c-1.5,1.5-3.8,1.5-5.3,0l-5-5c-3.2,1.1-6.8,0.3-9.2-2.1s-3.2-6-2.1-9.2l-5-5
	c-1.5-1.5-1.5-3.8,0-5.3l35.1-35.3c1.5-1.5,3.9-1.5,5.3,0c0,0,0,0,0,0l4.4,4.5c3.1-2.3,7.4-2.3,10.6,0.1l5.4-5.4
	C169.4,97.2,170.1,97.2,170.6,97.7z M168.1,123.3c0.5-0.5,0.5-1.3,0-1.8l-5.4-5.2c-0.2-0.2-0.4-0.6-0.4-0.9c0-0.3,0.1-0.7,0.4-0.9
	c2.2-2.2,2.4-5.5,0.7-8l-1.8,1.8c0.7,1.4,0.4,3.1-0.7,4.3c-1.5,1.5-3.8,1.5-5.3,0c-1.5-1.5-1.5-3.8,0-5.3c1.1-1.2,2.9-1.4,4.3-0.7
	l1.8-1.8c-2.5-1.7-5.8-1.4-8,0.7c-0.5,0.5-1.3,0.5-1.8,0l-5.2-5.4c-0.5-0.5-1.3-0.5-1.8,0l-32.5,32.6l-2.6,2.6
	c-0.5,0.5-0.5,1.3,0,1.8l5.5,5.6c0.4,0.4,0.5,0.9,0.3,1.4c-1.1,2.4-0.6,5.3,1.3,7.2c1.9,1.9,4.8,2.4,7.2,1.3
	c0.2-0.1,0.3-0.1,0.5-0.1c0.3,0,0.7,0.1,0.9,0.4l5.5,5.5c0.5,0.5,1.3,0.5,1.8,0L168.1,123.3z M159.1,111c0.5-0.5,0.5-1.3,0-1.8
	c-0.5-0.5-1.3-0.5-1.8,0c-0.5,0.5-0.5,1.3,0,1.8C157.9,111.4,158.7,111.4,159.1,111z"/>
<path id="XMLID_238_" d="M163.6,122.4c0.5,0.5,0.5,1.3,0,1.8L133.7,154c-0.5,0.5-1.3,0.5-1.8,0l-17.7-17.7c-0.5-0.5-0.5-1.3,0-1.8
	l9.6-9.6c0.5-0.5,1.3-0.5,1.8,0c0.5,0.5,0.5,1.3,0,1.8l-8.8,8.7l15.9,15.9l10.5-10.5l17.5-17.6L145,107.4l-10.5,10.5l-1.8,1.8
	c-0.5,0.5-1.3,0.5-1.8,0c-0.5-0.5-0.5-1.3,0-1.8l13.1-13.1c0.2-0.2,0.6-0.4,0.9-0.4s0.6,0.1,0.9,0.4l8.8,8.8L163.6,122.4z"/>
<path id="XMLID_234_" d="M149,127.4c0.1,0.7-0.3,1.3-1,1.5l-10.2,2l-7.5,1.5c-0.7,0.1-1.3-0.3-1.5-1c-0.1-0.7,0.3-1.3,1-1.5l10.2-2
	l7.5-1.5C148.2,126.3,148.9,126.7,149,127.4z"/>
<path id="XMLID_231_" d="M141.6,119.7c1.5,1.5,1.5,3.8,0,5.3c-0.6,0.6-1.2,0.9-1.9,1c-1.2,0.2-2.5-0.1-3.4-1c-1.5-1.5-1.5-3.8,0-5.3
	C137.8,118.2,140.1,118.2,141.6,119.7z M139.8,123.2c0.5-0.5,0.5-1.3,0-1.8s-1.3-0.5-1.8,0s-0.5,1.3,0,1.8
	C138.6,123.7,139.4,123.7,139.8,123.2z"/>
<path id="XMLID_228_" d="M141.6,133.8c1.5,1.5,1.5,3.8,0,5.3c-1.5,1.5-3.8,1.5-5.3,0c-1.5-1.5-1.5-3.8,0-5.3c0.6-0.6,1.2-0.9,1.9-1
	C139.4,132.6,140.7,132.9,141.6,133.8z M139.8,137.3c0.5-0.5,0.5-1.3,0-1.8s-1.3-0.5-1.8,0s-0.5,1.3,0,1.8
	C138.6,137.8,139.3,137.8,139.8,137.3z"/>
<path id="XMLID_227_" d="M129.2,121.4c0.5,0.5,0.5,1.3,0,1.8c-0.5,0.5-1.3,0.5-1.8,0c-0.5-0.5-0.5-1.3,0-1.8
	S128.7,120.9,129.2,121.4z"/>
<path id="XMLID_179_" class="st0" d="M168.1,121.6l-5.4-5.2c-0.2-0.2-0.4-0.6-0.4-0.9c0-0.3,0.1-0.7,0.4-0.9c2.2-2.2,2.4-5.5,0.7-8
	l-1.8,1.8c0.7,1.4,0.4,3.1-0.7,4.3c-1.5,1.5-3.8,1.5-5.3,0c-1.5-1.5-1.5-3.8,0-5.3c1.1-1.2,2.9-1.4,4.3-0.7l1.8-1.8
	c-2.5-1.7-5.8-1.4-8,0.7c-0.5,0.5-1.3,0.5-1.8,0l-5.2-5.4c-0.5-0.5-1.3-0.5-1.8,0l-32.5,32.6l-2.6,2.6c-0.5,0.5-0.5,1.3,0,1.8
	l5.5,5.6c0.4,0.4,0.5,0.9,0.3,1.4c-1.1,2.4-0.6,5.3,1.3,7.2c1.9,1.9,4.8,2.4,7.2,1.3c0.2-0.1,0.3-0.1,0.5-0.1c0.3,0,0.7,0.1,0.9,0.4
	l5.5,5.5c0.5,0.5,1.3,0.5,1.8,0l35.3-35.1C168.6,122.8,168.6,122.1,168.1,121.6z M163.6,124.2L133.7,154c-0.5,0.5-1.3,0.5-1.8,0
	l-17.7-17.7c-0.5-0.5-0.5-1.3,0-1.8l9.6-9.6c0,0,0,0,0,0l7-7c0,0,0,0,0,0l8.3-8.3l0,0l4.8-4.8c0.2-0.2,0.6-0.4,0.9-0.4
	s0.6,0.1,0.9,0.4l8.8,8.8l8.8,8.8C164.1,122.9,164.1,123.7,163.6,124.2z"/>
<g id="XMLID_7_">
	<circle id="XMLID_2_" class="st3" cx="359.8" cy="40.1" r="15"/>
	<g id="XMLID_5_">
		<path id="XMLID_3_" d="M367.1,41h-14.7c-0.5,0-0.9-0.4-0.9-0.9l0,0c0-0.5,0.4-0.9,0.9-0.9h14.7c0.5,0,0.9,0.4,0.9,0.9l0,0
			C368.1,40.6,367.6,41,367.1,41z"/>
		<path id="XMLID_4_" d="M360.7,32.7v14.7c0,0.5-0.4,0.9-0.9,0.9l0,0c-0.5,0-0.9-0.4-0.9-0.9V32.7c0-0.5,0.4-0.9,0.9-0.9l0,0
			C360.3,31.8,360.7,32.2,360.7,32.7z"/>
	</g>
	<g id="XMLID_6_">
		<circle id="XMLID_13_" class="st3" cx="409.6" cy="40.1" r="15"/>
		<path id="XMLID_12_" d="M416.9,41h-14.7c-0.5,0-0.9-0.4-0.9-0.9l0,0c0-0.5,0.4-0.9,0.9-0.9h14.7c0.5,0,0.9,0.4,0.9,0.9l0,0
			C417.9,40.6,417.5,41,416.9,41z"/>
	</g>
</g>
<g id="XMLID_1_">
</g>
<g id="XMLID_8_">
</g>
<g id="XMLID_15_">
</g>
<g id="XMLID_16_">
</g>
<g id="XMLID_18_">
</g>
<g id="XMLID_19_">
</g>
<g id="XMLID_21_">
</g>
<g id="XMLID_22_">
</g>
<g id="XMLID_24_">
</g>
<g id="XMLID_25_">
</g>
<g id="XMLID_31_">
</g>
<g id="XMLID_35_">
</g>
<g id="XMLID_36_">
</g>
<g id="XMLID_37_">
</g>
<g id="XMLID_38_">
</g>
</svg>
