<?xml version="1.0" encoding="utf-8"?>
<!-- Generator: Adobe Illustrator 19.0.0, SVG Export Plug-In . SVG Version: 6.00 Build 0)  -->
<svg version="1.1" id="Слой_1" xmlns="http://www.w3.org/2000/svg" xmlns:xlink="http://www.w3.org/1999/xlink" x="0px" y="0px"
	 width="1000px" height="1000px" viewBox="0 0 1000 1000" style="enable-background:new 0 0 1000 1000;" xml:space="preserve">
<style type="text/css">
	.st0{fill:#FFBACD;}
	.st1{fill:#FFFFFF;}
</style>
<g id="XMLID_1_">
	<g id="XMLID_31_">
		<g id="XMLID_3_">
			<path id="XMLID_76_" class="st0" d="M60.79,71.49H46.37c-0.38,0-0.69-0.31-0.69-0.69V40.3c0-0.38,0.31-0.69,0.69-0.69H60.1
				c0.38,0,0.69,0.31,0.69,0.69V71.49z"/>
			<path id="XMLID_56_" class="st0" d="M44.95,37.1H30.99c-0.38,0-0.69-0.31-0.69-0.69v-9.02c0-0.38,0.31-0.69,0.69-0.69h13.96
				c0.38,0,0.69,0.31,0.69,0.69v9.02C45.64,36.79,45.33,37.1,44.95,37.1z"/>
			<path id="XMLID_55_" class="st0" d="M31.51,71.49H15.84c-0.38,0-0.69-0.31-0.69-0.69V40.3c0-0.38,0.31-0.69,0.69-0.69h13.73
				c0.38,0,0.69,0.31,0.69,0.69v22.41c0,0.69,0.56,1.25,1.26,1.25l-0.01,2.51c-0.7,0-1.26,0.56-1.26,1.26
				c0,0.69,0.56,1.26,1.26,1.26V71.49z"/>
		</g>
		<path id="XMLID_57_" d="M13.2,37.1h13.9c0.38,0,0.69-0.31,0.69-0.69v-9.02c0-0.38-0.31-0.69-0.69-0.69H13.2
			c-0.38,0-0.69,0.31-0.69,0.69v9.02C12.51,36.79,12.82,37.1,13.2,37.1z M46.37,71.49h14.42V40.3c0-0.38-0.31-0.69-0.69-0.69H46.37
			c-0.38,0-0.69,0.31-0.69,0.69v30.5C45.68,71.18,45.99,71.49,46.37,71.49z M48.84,26.7c-0.38,0-0.69,0.31-0.69,0.69v9.02
			c0,0.38,0.31,0.69,0.69,0.69h13.91c0.38,0,0.69-0.31,0.69-0.69v-9.02c0-0.38-0.31-0.69-0.69-0.69H48.84z M61.36,74H14.59
			c-1.07,0-1.95-0.88-1.95-1.95V40.3c0-0.38-0.31-0.69-0.69-0.69h-0.01c-1.07,0-1.94-0.87-1.94-1.94V26.13
			c0-1.07,0.87-1.94,1.94-1.94h5.25c0.57,0,0.92-0.66,0.56-1.11c-0.47-0.58-0.87-1.23-1.19-1.93c-0.29-0.63-0.02-1.37,0.61-1.66
			c0.17-0.08,0.35-0.12,0.53-0.12c0.47,0,0.93,0.27,1.14,0.73c1.14,2.49,3.68,4.09,6.46,4.09h9.47c0.53,0,0.87-0.57,0.61-1.03
			c-2.15-3.88-5.77-9.31-9.08-10.45c-0.05-0.01-0.09-0.03-0.14-0.03c-1.71-0.34-3.53-0.14-5.03,0.56c-0.56,0.27-1.24,0.07-1.58-0.44
			c-0.03-0.05-0.06-0.1-0.09-0.16c-0.29-0.63-0.02-1.38,0.61-1.67c2.05-0.96,4.44-1.22,6.74-0.72c0.04,0,0.07,0.01,0.11,0.02
			c2.68,0.84,5.56,3.59,8.55,8.17c0.72,1.11,1.37,2.19,1.9,3.14c0.27,0.47,0.94,0.47,1.2,0c0.54-0.95,1.18-2.03,1.9-3.14
			c3-4.58,5.88-7.33,8.55-8.17c0.04-0.01,0.08-0.02,0.11-0.02c4.53-0.98,9.22,1.06,10.67,4.63c0.4,0.99,0.53,2.19,0.38,3.48
			c-0.22,1.78-0.93,3.39-1.99,4.72c-0.35,0.45-0.01,1.11,0.56,1.11h5.26c1.07,0,1.94,0.87,1.94,1.94v11.53
			c0,1.07-0.88,1.95-1.95,1.95h-0.01c-0.38,0-0.69,0.31-0.69,0.69v31.76C63.3,73.13,62.43,74,61.36,74z M30.99,37.1h13.96
			c0.38,0,0.69-0.31,0.69-0.69v-9.02c0-0.38-0.31-0.69-0.69-0.69H30.99c-0.38,0-0.69,0.31-0.69,0.69v9.02
			C30.3,36.79,30.61,37.1,30.99,37.1z M43.17,70.8V40.3c0-0.38-0.31-0.69-0.69-0.69h-9.02c-0.38,0-0.69,0.31-0.69,0.69v22.41
			c0,0.69-0.56,1.25-1.25,1.25c-0.7,0-1.26-0.56-1.26-1.25V40.3c0-0.38-0.31-0.69-0.69-0.69H15.84c-0.38,0-0.69,0.31-0.69,0.69v30.5
			c0,0.38,0.31,0.69,0.69,0.69h15.67h10.97C42.86,71.49,43.17,71.18,43.17,70.8z M49.65,12.71c-3.31,1.14-6.94,6.57-9.09,10.45
			c-0.26,0.46,0.08,1.03,0.61,1.03h9.47c3.6,0,6.62-2.63,7.04-6.13c0.11-0.87,0.03-1.64-0.21-2.24c-0.97-2.4-4.4-3.8-7.68-3.14
			C49.74,12.68,49.7,12.7,49.65,12.71z"/>
		<path id="XMLID_54_" d="M31.51,66.47c0.7,0,1.26,0.56,1.26,1.26c0,0.69-0.56,1.26-1.26,1.26c-0.7,0-1.26-0.57-1.26-1.26
			C30.25,67.03,30.81,66.47,31.51,66.47z"/>
		<path id="XMLID_53_" d="M17.32,14.46c0.69,0,1.26,0.56,1.26,1.26c0,0.7-0.57,1.26-1.26,1.26c-0.7,0-1.26-0.56-1.26-1.26
			C16.06,15.02,16.62,14.46,17.32,14.46z"/>
	</g>
	<g id="XMLID_2_">
		<path id="XMLID_45_" class="st0" d="M168,27c0-6.08-4.92-11-11-11h-29c-6.08,0-11,4.92-11,11v29c0,6.08,4.92,11,11,11h29
			c6.08,0,11-4.92,11-11V27z M143.89,58.44c-8.88,0-16.08-7.2-16.08-16.08s7.2-16.08,16.08-16.08s16.08,7.2,16.08,16.08
			S152.77,58.44,143.89,58.44z"/>
		<g id="XMLID_40_">
			<g id="XMLID_24_">
				<g id="XMLID_25_">
					<path id="XMLID_26_" d="M157.14,10h-26.5c-10.34,0-18.75,8.41-18.75,18.75v26.5c0,10.34,8.41,18.75,18.75,18.75h26.5
						c10.34,0,18.75-8.41,18.75-18.75v-26.5C175.89,18.41,167.48,10,157.14,10z M173.39,55.25c0,8.96-7.29,16.25-16.25,16.25h-26.5
						c-8.96,0-16.25-7.29-16.25-16.25v-26.5c0-8.96,7.29-16.25,16.25-16.25h26.5c8.96,0,16.25,7.29,16.25,16.25V55.25z"/>
				</g>
			</g>
			<g id="XMLID_21_">
				<g id="XMLID_22_">
					<path id="XMLID_23_" d="M157.14,15.5h-26.5c-7.31,0-13.25,5.94-13.25,13.25v26.5c0,7.31,5.94,13.25,13.25,13.25h7.63
						c0.69,0,1.25-0.56,1.25-1.25S138.95,66,138.26,66h-7.63c-5.93,0-10.75-4.82-10.75-10.75v-26.5c0-5.93,4.82-10.75,10.75-10.75
						h26.5c5.93,0,10.75,4.82,10.75,10.75v26.5c0,5.93-4.82,10.75-10.75,10.75h-7.54c-0.69,0-1.25,0.56-1.25,1.25
						s0.56,1.25,1.25,1.25h7.54c7.31,0,13.25-5.94,13.25-13.25v-26.5C170.39,21.44,164.44,15.5,157.14,15.5z"/>
				</g>
			</g>
			<g id="XMLID_18_">
				<g id="XMLID_19_">
					<path id="XMLID_20_" d="M144.77,66.37c-0.23-0.23-0.56-0.37-0.88-0.37s-0.65,0.13-0.88,0.37c-0.23,0.23-0.37,0.56-0.37,0.88
						s0.13,0.65,0.37,0.88s0.55,0.37,0.88,0.37s0.65-0.13,0.88-0.37c0.23-0.23,0.37-0.56,0.37-0.88S145,66.6,144.77,66.37z"/>
				</g>
			</g>
			<g id="XMLID_15_">
				<g id="XMLID_16_">
					<path id="XMLID_17_" d="M133.87,29.46c-0.47-0.5-1.26-0.53-1.77-0.06l-0.06,0.05c-0.5,0.47-0.53,1.26-0.05,1.77
						c0.25,0.26,0.58,0.39,0.91,0.39c0.31,0,0.62-0.11,0.86-0.34l0.05-0.05C134.31,30.76,134.34,29.97,133.87,29.46z"/>
				</g>
			</g>
			<g id="XMLID_12_">
				<g id="XMLID_13_">
					<path id="XMLID_14_" d="M143.89,24.75c-2.75,0-5.48,0.66-7.9,1.91c-0.61,0.32-0.85,1.07-0.54,1.68
						c0.32,0.61,1.07,0.85,1.68,0.54c2.1-1.08,4.37-1.63,6.76-1.63c8.13,0,14.75,6.62,14.75,14.75s-6.62,14.75-14.75,14.75
						c-8.13,0-14.75-6.62-14.75-14.75c0-2.55,0.66-5.07,1.91-7.27c0.34-0.6,0.13-1.36-0.47-1.7c-0.6-0.34-1.36-0.13-1.7,0.47
						c-1.47,2.58-2.24,5.52-2.24,8.51c0,9.51,7.74,17.25,17.25,17.25s17.25-7.74,17.25-17.25S153.4,24.75,143.89,24.75z"/>
				</g>
			</g>
			<g id="XMLID_7_">
				<g id="XMLID_8_">
					<path id="XMLID_9_" d="M143.89,30.75c-6.2,0-11.25,5.05-11.25,11.25s5.05,11.25,11.25,11.25S155.14,48.2,155.14,42
						S150.09,30.75,143.89,30.75z M143.89,50.75c-4.82,0-8.75-3.93-8.75-8.75s3.93-8.75,8.75-8.75s8.75,3.93,8.75,8.75
						S148.71,50.75,143.89,50.75z"/>
				</g>
			</g>
			<g id="XMLID_5_">
				<g id="XMLID_6_">
					<path id="XMLID_29_" d="M160.29,20.84c-2.62,0-4.75,2.13-4.75,4.75s2.13,4.75,4.75,4.75s4.75-2.13,4.75-4.75
						S162.91,20.84,160.29,20.84z M160.29,27.84c-1.24,0-2.25-1.01-2.25-2.25s1.01-2.25,2.25-2.25c1.24,0,2.25,1.01,2.25,2.25
						S161.53,27.84,160.29,27.84z"/>
				</g>
			</g>
		</g>
	</g>
	<g id="XMLID_4_">
		<path id="XMLID_33_" class="st1" d="M305.65,50.75l5.93-5.93c0.41-0.41,0.41-1.07,0-1.48l-5.93-5.93l-1.48,1.48l4.14,4.14h-25.76
			v2.1h25.76l-4.14,4.14L305.65,50.75z"/>
		<path id="XMLID_34_" class="st1" d="M221.6,49.27l-4.14-4.14h25.76v-2.1h-25.76l4.14-4.14l-1.48-1.48l-5.93,5.93
			c-0.41,0.41-0.41,1.07,0,1.48l5.93,5.93L221.6,49.27z"/>
	</g>
</g>
<g id="XMLID_35_">
	<path id="XMLID_48_" d="M25.93,100.43c-1.47-1.47-3.27-2.35-5.41-2.64h-7.53v14.63H10v3.41h2.99v1.78H10v3h2.99h0v3.74h3.44v-3.74
		h2.99l0-3h-2.99v-1.76h3.13c2.49,0,4.61-0.88,6.37-2.65c1.76-1.77,2.64-3.9,2.64-6.4C28.56,104.33,27.68,102.2,25.93,100.43z
		 M23.49,110.77c-1.09,1.09-2.4,1.64-3.93,1.64h-3.14v-11.16h3.14c1.53,0,2.84,0.54,3.93,1.63c1.09,1.08,1.64,2.4,1.64,3.93
		C25.13,108.36,24.58,109.68,23.49,110.77z"/>
</g>
<g id="XMLID_36_">
</g>
<g id="XMLID_37_">
</g>
<g id="XMLID_38_">
</g>
<g id="XMLID_39_">
</g>
<g id="XMLID_41_">
</g>
<g id="XMLID_46_">
</g>
<g id="XMLID_49_">
</g>
<g id="XMLID_50_">
</g>
<g id="XMLID_51_">
</g>
<g id="XMLID_52_">
</g>
<g id="XMLID_61_">
</g>
<g id="XMLID_62_">
</g>
<g id="XMLID_63_">
</g>
<g id="XMLID_64_">
</g>
<g id="XMLID_65_">
</g>
</svg>
