<?xml version="1.0" encoding="utf-8"?>
<!-- Generator: Adobe Illustrator 19.0.0, SVG Export Plug-In . SVG Version: 6.00 Build 0)  -->
<svg version="1.1" id="Слой_1" xmlns="http://www.w3.org/2000/svg" xmlns:xlink="http://www.w3.org/1999/xlink" x="0px" y="0px"
	 width="1000px" height="1000px" viewBox="0 0 1000 1000" style="enable-background:new 0 0 1000 1000;" xml:space="preserve">
<style type="text/css">
	.st0{fill:#FFBACD;}
	.st1{fill:#FFFFFF;}
	.st2{fill:none;stroke:#000000;stroke-width:1.875;stroke-miterlimit:10;}
</style>
<path id="XMLID_76_" class="st0" d="M60.79,71.49H46.37c-0.38,0-0.69-0.31-0.69-0.69V40.3c0-0.38,0.31-0.69,0.69-0.69H60.1
	c0.38,0,0.69,0.31,0.69,0.69V71.49z"/>
<path id="XMLID_56_" class="st0" d="M44.95,37.1H30.99c-0.38,0-0.69-0.31-0.69-0.69v-9.02c0-0.38,0.31-0.69,0.69-0.69h13.96
	c0.38,0,0.69,0.31,0.69,0.69v9.02C45.64,36.79,45.33,37.1,44.95,37.1z"/>
<path id="XMLID_55_" class="st0" d="M31.51,71.49H15.84c-0.38,0-0.69-0.31-0.69-0.69V40.3c0-0.38,0.31-0.69,0.69-0.69h13.73
	c0.38,0,0.69,0.31,0.69,0.69v22.41c0,0.69,0.56,1.25,1.26,1.25l-0.01,2.51c-0.7,0-1.26,0.56-1.26,1.26c0,0.69,0.56,1.26,1.26,1.26
	V71.49z"/>
<path id="XMLID_57_" d="M13.2,37.1h13.9c0.38,0,0.69-0.31,0.69-0.69v-9.02c0-0.38-0.31-0.69-0.69-0.69H13.2
	c-0.38,0-0.69,0.31-0.69,0.69v9.02C12.51,36.79,12.82,37.1,13.2,37.1z M46.37,71.49h14.42V40.3c0-0.38-0.31-0.69-0.69-0.69H46.37
	c-0.38,0-0.69,0.31-0.69,0.69v30.5C45.68,71.18,45.99,71.49,46.37,71.49z M48.84,26.7c-0.38,0-0.69,0.31-0.69,0.69v9.02
	c0,0.38,0.31,0.69,0.69,0.69h13.91c0.38,0,0.69-0.31,0.69-0.69v-9.02c0-0.38-0.31-0.69-0.69-0.69H48.84z M61.36,74H14.59
	c-1.07,0-1.95-0.88-1.95-1.95V40.3c0-0.38-0.31-0.69-0.69-0.69h-0.01c-1.07,0-1.94-0.87-1.94-1.94V26.13c0-1.07,0.87-1.94,1.94-1.94
	h5.25c0.57,0,0.92-0.66,0.56-1.11c-0.47-0.58-0.87-1.23-1.19-1.93c-0.29-0.63-0.02-1.37,0.61-1.66c0.17-0.08,0.35-0.12,0.53-0.12
	c0.47,0,0.93,0.27,1.14,0.73c1.14,2.49,3.68,4.09,6.46,4.09h9.47c0.53,0,0.87-0.57,0.61-1.03c-2.15-3.88-5.77-9.31-9.08-10.45
	c-0.05-0.01-0.09-0.03-0.14-0.03c-1.71-0.34-3.53-0.14-5.03,0.56c-0.56,0.27-1.24,0.07-1.58-0.44c-0.03-0.05-0.06-0.1-0.09-0.16
	c-0.29-0.63-0.02-1.38,0.61-1.67c2.05-0.96,4.44-1.22,6.74-0.72c0.04,0,0.07,0.01,0.11,0.02c2.68,0.84,5.56,3.59,8.55,8.17
	c0.72,1.11,1.37,2.19,1.9,3.14c0.27,0.47,0.94,0.47,1.2,0c0.54-0.95,1.18-2.03,1.9-3.14c3-4.58,5.88-7.33,8.55-8.17
	c0.04-0.01,0.08-0.02,0.11-0.02c4.53-0.98,9.22,1.06,10.67,4.63c0.4,0.99,0.53,2.19,0.38,3.48c-0.22,1.78-0.93,3.39-1.99,4.72
	c-0.35,0.45-0.01,1.11,0.56,1.11h5.26c1.07,0,1.94,0.87,1.94,1.94v11.53c0,1.07-0.88,1.95-1.95,1.95h-0.01
	c-0.38,0-0.69,0.31-0.69,0.69v31.76C63.3,73.13,62.43,74,61.36,74z M30.99,37.1h13.96c0.38,0,0.69-0.31,0.69-0.69v-9.02
	c0-0.38-0.31-0.69-0.69-0.69H30.99c-0.38,0-0.69,0.31-0.69,0.69v9.02C30.3,36.79,30.61,37.1,30.99,37.1z M43.17,70.8V40.3
	c0-0.38-0.31-0.69-0.69-0.69h-9.02c-0.38,0-0.69,0.31-0.69,0.69v22.41c0,0.69-0.56,1.25-1.25,1.25c-0.7,0-1.26-0.56-1.26-1.25V40.3
	c0-0.38-0.31-0.69-0.69-0.69H15.84c-0.38,0-0.69,0.31-0.69,0.69v30.5c0,0.38,0.31,0.69,0.69,0.69h15.67h10.97
	C42.86,71.49,43.17,71.18,43.17,70.8z M49.65,12.71c-3.31,1.14-6.94,6.57-9.09,10.45c-0.26,0.46,0.08,1.03,0.61,1.03h9.47
	c3.6,0,6.62-2.63,7.04-6.13c0.11-0.87,0.03-1.64-0.21-2.24c-0.97-2.4-4.4-3.8-7.68-3.14C49.74,12.68,49.7,12.7,49.65,12.71z"/>
<path id="XMLID_54_" d="M31.51,66.47c0.7,0,1.26,0.56,1.26,1.26c0,0.69-0.56,1.26-1.26,1.26c-0.7,0-1.26-0.57-1.26-1.26
	C30.25,67.03,30.81,66.47,31.51,66.47z"/>
<path id="XMLID_53_" d="M17.32,14.46c0.69,0,1.26,0.56,1.26,1.26c0,0.7-0.57,1.26-1.26,1.26c-0.7,0-1.26-0.56-1.26-1.26
	C16.06,15.02,16.62,14.46,17.32,14.46z"/>
<path id="XMLID_45_" class="st0" d="M168,27c0-6.08-4.92-11-11-11h-29c-6.08,0-11,4.92-11,11v29c0,6.08,4.92,11,11,11h29
	c6.08,0,11-4.92,11-11V27z M143.89,58.44c-8.88,0-16.08-7.2-16.08-16.08s7.2-16.08,16.08-16.08s16.08,7.2,16.08,16.08
	S152.77,58.44,143.89,58.44z"/>
<path id="XMLID_26_" d="M157.14,10h-26.5c-10.34,0-18.75,8.41-18.75,18.75v26.5c0,10.34,8.41,18.75,18.75,18.75h26.5
	c10.34,0,18.75-8.41,18.75-18.75v-26.5C175.89,18.41,167.48,10,157.14,10z M173.39,55.25c0,8.96-7.29,16.25-16.25,16.25h-26.5
	c-8.96,0-16.25-7.29-16.25-16.25v-26.5c0-8.96,7.29-16.25,16.25-16.25h26.5c8.96,0,16.25,7.29,16.25,16.25V55.25z"/>
<path id="XMLID_23_" d="M157.14,15.5h-26.5c-7.31,0-13.25,5.94-13.25,13.25v26.5c0,7.31,5.94,13.25,13.25,13.25h7.63
	c0.69,0,1.25-0.56,1.25-1.25S138.95,66,138.26,66h-7.63c-5.93,0-10.75-4.82-10.75-10.75v-26.5c0-5.93,4.82-10.75,10.75-10.75h26.5
	c5.93,0,10.75,4.82,10.75,10.75v26.5c0,5.93-4.82,10.75-10.75,10.75h-7.54c-0.69,0-1.25,0.56-1.25,1.25s0.56,1.25,1.25,1.25h7.54
	c7.31,0,13.25-5.94,13.25-13.25v-26.5C170.39,21.44,164.44,15.5,157.14,15.5z"/>
<path id="XMLID_20_" d="M144.77,66.37c-0.23-0.23-0.56-0.37-0.88-0.37s-0.65,0.13-0.88,0.37c-0.23,0.23-0.37,0.56-0.37,0.88
	s0.13,0.65,0.37,0.88s0.55,0.37,0.88,0.37s0.65-0.13,0.88-0.37c0.23-0.23,0.37-0.56,0.37-0.88S145,66.6,144.77,66.37z"/>
<path id="XMLID_17_" d="M133.87,29.46c-0.47-0.5-1.26-0.53-1.77-0.06l-0.06,0.05c-0.5,0.47-0.53,1.26-0.05,1.77
	c0.25,0.26,0.58,0.39,0.91,0.39c0.31,0,0.62-0.11,0.86-0.34l0.05-0.05C134.31,30.76,134.34,29.97,133.87,29.46z"/>
<path id="XMLID_14_" d="M143.89,24.75c-2.75,0-5.48,0.66-7.9,1.91c-0.61,0.32-0.85,1.07-0.54,1.68c0.32,0.61,1.07,0.85,1.68,0.54
	c2.1-1.08,4.37-1.63,6.76-1.63c8.13,0,14.75,6.62,14.75,14.75s-6.62,14.75-14.75,14.75c-8.13,0-14.75-6.62-14.75-14.75
	c0-2.55,0.66-5.07,1.91-7.27c0.34-0.6,0.13-1.36-0.47-1.7c-0.6-0.34-1.36-0.13-1.7,0.47c-1.47,2.58-2.24,5.52-2.24,8.51
	c0,9.51,7.74,17.25,17.25,17.25s17.25-7.74,17.25-17.25S153.4,24.75,143.89,24.75z"/>
<path id="XMLID_9_" d="M143.89,30.75c-6.2,0-11.25,5.05-11.25,11.25s5.05,11.25,11.25,11.25S155.14,48.2,155.14,42
	S150.09,30.75,143.89,30.75z M143.89,50.75c-4.82,0-8.75-3.93-8.75-8.75s3.93-8.75,8.75-8.75s8.75,3.93,8.75,8.75
	S148.71,50.75,143.89,50.75z"/>
<path id="XMLID_29_" d="M160.29,20.84c-2.62,0-4.75,2.13-4.75,4.75s2.13,4.75,4.75,4.75s4.75-2.13,4.75-4.75
	S162.91,20.84,160.29,20.84z M160.29,27.84c-1.24,0-2.25-1.01-2.25-2.25s1.01-2.25,2.25-2.25c1.24,0,2.25,1.01,2.25,2.25
	S161.53,27.84,160.29,27.84z"/>
<path id="XMLID_33_" class="st1" d="M305.65,50.75l5.93-5.93c0.41-0.41,0.41-1.07,0-1.48l-5.93-5.93l-1.48,1.48l4.14,4.14h-25.76
	v2.1h25.76l-4.14,4.14L305.65,50.75z"/>
<path id="XMLID_34_" class="st1" d="M221.6,49.27l-4.14-4.14h25.76v-2.1h-25.76l4.14-4.14l-1.48-1.48l-5.93,5.93
	c-0.41,0.41-0.41,1.07,0,1.48l5.93,5.93L221.6,49.27z"/>
<path id="XMLID_48_" d="M25.93,100.43c-1.47-1.47-3.27-2.35-5.41-2.64h-7.53v14.63H10v3.41h2.99v1.78H10v3h2.99h0v3.74h3.44v-3.74
	h2.99l0-3h-2.99v-1.76h3.13c2.49,0,4.61-0.88,6.37-2.65c1.76-1.77,2.64-3.9,2.64-6.4C28.56,104.33,27.68,102.2,25.93,100.43z
	 M23.49,110.77c-1.09,1.09-2.4,1.64-3.93,1.64h-3.14v-11.16h3.14c1.53,0,2.84,0.54,3.93,1.63c1.09,1.08,1.64,2.4,1.64,3.93
	C25.13,108.36,24.58,109.68,23.49,110.77z"/>
<path id="XMLID_96_" class="st0" d="M277.61,123.12c-0.33,0-0.65,0.14-0.89,0.37c-0.23,0.23-0.36,0.55-0.36,0.88
	c0,0.33,0.13,0.66,0.36,0.89c0.24,0.23,0.56,0.36,0.89,0.36c0.33,0,0.65-0.13,0.88-0.36c0.23-0.24,0.37-0.56,0.37-0.89
	c0-0.33-0.14-0.65-0.37-0.88C278.26,123.26,277.94,123.12,277.61,123.12z M277.61,120.68c0.69,0,1.25-0.56,1.25-1.25v-2.9
	c2.52-0.61,4.21-2.92,4.03-5.52c-0.18-2.62-2.29-4.73-4.91-4.91c-1.48-0.1-2.9,0.4-3.98,1.41c-1.07,1-1.68,2.41-1.68,3.87
	c0,0.69,0.56,1.25,1.25,1.25s1.25-0.56,1.25-1.25c0-0.78,0.31-1.5,0.88-2.04c0.58-0.53,1.32-0.8,2.11-0.74
	c1.38,0.09,2.49,1.2,2.58,2.58c0.1,1.39-0.81,2.62-2.17,2.93c-1.1,0.24-1.86,1.2-1.86,2.32v3
	C276.36,120.12,276.92,120.68,277.61,120.68z M278.84,99.83c8.64,0,15.67,7.03,15.67,15.67c0,4.97-2.28,9.53-6.25,12.52
	c-0.32,0.24-0.5,0.61-0.5,1v4.83l-3.06-3.06c-0.24-0.24-0.56-0.37-0.88-0.37c-0.13,0-0.25,0.02-0.37,0.06
	c-1.49,0.46-3.04,0.69-4.61,0.69h-3.16c-8.64,0-15.67-7.03-15.67-15.67s7.03-15.67,15.67-15.67H278.84z"/>
<path id="XMLID_93_" d="M278.49,123.49c0.23,0.23,0.37,0.55,0.37,0.88c0,0.33-0.14,0.65-0.37,0.89c-0.23,0.23-0.55,0.36-0.88,0.36
	c-0.33,0-0.65-0.13-0.89-0.36c-0.23-0.23-0.36-0.56-0.36-0.89c0-0.33,0.13-0.65,0.36-0.88c0.24-0.23,0.56-0.37,0.89-0.37
	C277.94,123.12,278.26,123.26,278.49,123.49z"/>
<path id="XMLID_92_" d="M282.89,111.01c0.18,2.6-1.51,4.91-4.03,5.52v2.9c0,0.69-0.56,1.25-1.25,1.25s-1.25-0.56-1.25-1.25v-3
	c0-1.12,0.76-2.08,1.86-2.32c1.36-0.31,2.27-1.54,2.17-2.93c-0.09-1.38-1.2-2.49-2.58-2.58c-0.79-0.06-1.53,0.21-2.11,0.74
	c-0.57,0.54-0.88,1.26-0.88,2.04c0,0.69-0.56,1.25-1.25,1.25s-1.25-0.56-1.25-1.25c0-1.46,0.61-2.87,1.68-3.87
	c1.08-1.01,2.5-1.51,3.98-1.41C280.6,106.28,282.71,108.39,282.89,111.01z"/>
<path id="XMLID_91_" d="M267.38,136.08c0.69,0,1.25,0.56,1.25,1.25s-0.56,1.25-1.25,1.25h-26.37c-0.69,0-1.25-0.56-1.25-1.25
	s0.56-1.25,1.25-1.25H267.38z"/>
<path id="XMLID_89_" d="M266.5,143.45c0.23-0.23,0.55-0.37,0.88-0.37s0.65,0.14,0.89,0.37c0.23,0.23,0.36,0.55,0.36,0.88
	s-0.13,0.65-0.36,0.89c-0.24,0.23-0.56,0.36-0.89,0.36s-0.65-0.13-0.88-0.36c-0.23-0.24-0.37-0.56-0.37-0.89
	S266.27,143.68,266.5,143.45z"/>
<path id="XMLID_88_" d="M262.47,143.08c0.69,0,1.25,0.56,1.25,1.25s-0.56,1.25-1.25,1.25h-21.46c-0.69,0-1.25-0.56-1.25-1.25
	s0.56-1.25,1.25-1.25H262.47z"/>
<path id="XMLID_83_" d="M257.51,115.5c0-10.02,8.15-18.17,18.17-18.17h3.16c10.02,0,18.17,8.15,18.17,18.17
	c0,2.9-0.67,5.68-1.98,8.24c-1.15,2.27-2.79,4.29-4.77,5.89v7.23c0,0.51-0.31,0.97-0.77,1.16c-0.16,0.06-0.32,0.09-0.48,0.09
	c-0.33,0-0.65-0.12-0.89-0.36l-4.67-4.67c-1.5,0.39-3.05,0.59-4.61,0.59h-3.16C265.66,133.67,257.51,125.52,257.51,115.5z
	 M260.01,115.5c0,8.64,7.03,15.67,15.67,15.67h3.16c1.57,0,3.12-0.23,4.61-0.69c0.12-0.04,0.24-0.06,0.37-0.06
	c0.32,0,0.64,0.13,0.88,0.37l3.06,3.06v-4.83c0-0.39,0.18-0.76,0.5-1c3.97-2.99,6.25-7.55,6.25-12.52c0-8.64-7.03-15.67-15.67-15.67
	h-3.16C267.04,99.83,260.01,106.86,260.01,115.5z"/>
<path id="XMLID_82_" d="M259.26,129.08c0.69,0,1.25,0.56,1.25,1.25s-0.56,1.25-1.25,1.25h-18.25c-0.69,0-1.25-0.56-1.25-1.25
	s0.56-1.25,1.25-1.25H259.26z"/>
<path id="XMLID_80_" d="M241.76,155.83c-4.83,0-8.75-3.92-8.75-8.75v-19.25c0-4.82,3.92-8.75,8.75-8.75h12.62
	c0.69,0,1.25,0.56,1.25,1.25c0,0.69-0.56,1.25-1.25,1.25h-12.62c-3.45,0-6.25,2.81-6.25,6.25v19.25c0,3.45,2.8,6.25,6.25,6.25h8.12
	c0.51,0,0.95,0.31,1.15,0.75l2.98,2.99v-2.49c0-0.69,0.56-1.25,1.25-1.25h13.5c3.44,0,6.25-2.8,6.25-6.25v-8.62
	c0-0.69,0.56-1.25,1.25-1.25s1.25,0.56,1.25,1.25v8.62c0,4.83-3.93,8.75-8.75,8.75h-12.25v4.25c0,0.51-0.31,0.96-0.77,1.16
	c-0.16,0.06-0.32,0.09-0.48,0.09c-0.33,0-0.65-0.12-0.89-0.36l-5.13-5.14H241.76z"/>
<path id="XMLID_46_" class="st0" d="M414.54,128.43c-1.02-0.07-1.97-0.56-2.62-1.34c-0.48-0.58-0.77-1.31-0.84-2.06
	c-0.01-0.25-0.01-0.51,0.02-0.76l0.01-0.05c0.19-1.51,1.25-2.76,2.71-3.18l4.41-1.25c1.32-0.38,2.19-1.68,2.01-3.04
	c-0.08-0.62-0.17-1.25-0.27-1.88c-1.3-7.99-2.6-11.4-3.07-12.45c-1.63-0.51-7.55-2.13-15.27-1.07c-0.08,0.01-0.14,0.09-0.13,0.17
	l0.56,4.91c0.26,2.26-1.37,4.34-3.63,4.63c-1.16,0.14-2.33-0.2-3.22-0.96c-0.22-0.19-0.42-0.4-0.6-0.62
	c-0.53-0.68-0.84-1.51-0.89-2.39l-0.25-5.79c-2.18,0.04-4.28,0.2-6.28,0.48c-1.22,0.18-2.08,1.33-1.91,2.57l1.04,7.79
	c0.26,1.92-0.83,3.73-2.65,4.4c-1.12,0.42-2.37,0.33-3.42-0.26c-1.05-0.58-1.79-1.58-2.04-2.76l-1.78-8.54
	c-1.66,0.81-3.22,1.76-4.64,2.82c-1.27,0.94-1.76,2.57-1.24,4.05l2.97,8.39c0.73,2.08-0.13,4.38-2.04,5.47
	c-1.27,0.72-2.77,0.8-4.1,0.2c-1.34-0.59-2.29-1.75-2.6-3.18l-1.13-5.19c-2.54,5.19-2.83,11.04-0.79,16.2
	c1.92,4.86,5.66,8.47,10.58,10.25l19.91-19.92c-2.12-4.25-3.32-8.81-3.57-13.56l-0.01-0.17c-0.04-0.69,0.49-1.28,1.18-1.31
	c0.44-0.03,0.84,0.18,1.08,0.51c0.14,0.19,0.23,0.42,0.24,0.67v0.17c0.22,4.12,1.21,8.09,2.95,11.82l11.16-11.16
	c0.49-0.49,1.28-0.49,1.77,0s0.49,1.28,0,1.77l-14.32,14.32c3.3,1.49,6.78,2.55,10.36,3.15c0.43,0.08,0.86,0.14,1.29,0.2
	c0.68,0.09,1.16,0.72,1.07,1.4c-0.09,0.63-0.62,1.08-1.24,1.08c-0.05,0-0.11,0-0.17-0.01c-4.59-0.62-9.02-1.95-13.19-3.94
	l-16.75,16.75c2.87,7.89,10.71,12.6,19.19,11.82l-5.43-3.7c-0.96-0.65-1.6-1.65-1.8-2.8c-0.19-1.14,0.08-2.29,0.76-3.23
	c0.69-0.95,1.71-1.55,2.87-1.71c1.16-0.16,2.3,0.16,3.22,0.88l9.38,7.43c2.14-1.36,6.58-4.42,9.73-8.12l-7.88-3.33
	c-1.83-0.77-2.88-2.68-2.56-4.64c0.36-2.2,2.31-3.74,4.54-3.59c2.56,0.19,6.38,0.46,9.15,0.65c1.54,0.11,2.91-0.9,3.26-2.39
	c0.32-1.36,0.58-2.77,0.75-4.21L414.54,128.43z M376.81,135.59c-0.49,0.82-1.27,1.4-2.2,1.64c-0.3,0.07-0.59,0.11-0.89,0.11
	c-0.63,0-1.26-0.17-1.83-0.51c-0.82-0.49-1.4-1.27-1.63-2.2l-0.16-0.62c-0.48-1.92,0.68-3.87,2.6-4.35c0.92-0.24,1.89-0.1,2.71,0.4
	c0.82,0.49,1.4,1.27,1.64,2.2l0.15,0.62C377.44,133.81,377.3,134.77,376.81,135.59z M381.06,131.23c-0.2,0.12-0.43,0.18-0.65,0.18
	c-0.42,0-0.83-0.21-1.06-0.6c-2.14-3.48-3.58-7.3-4.26-11.33l-0.26-1.5c-0.11-0.68,0.34-1.32,1.03-1.44
	c0.68-0.11,1.32,0.35,1.44,1.03l0.25,1.49c0.63,3.72,1.95,7.23,3.93,10.45C381.84,130.1,381.65,130.86,381.06,131.23z
	 M387.52,124.78c-0.52,0.8-1.33,1.35-2.26,1.55c-0.25,0.05-0.51,0.08-0.76,0.08c-0.68,0-1.35-0.2-1.94-0.58
	c-0.8-0.52-1.35-1.32-1.55-2.26l-0.12-0.57c-0.42-1.93,0.82-3.84,2.75-4.25c1.93-0.41,3.84,0.83,4.25,2.76l0.13,0.57
	C388.22,123.01,388.04,123.97,387.52,124.78z M385.38,142.84l-4.09,4.08c-0.24,0.24-0.56,0.36-0.88,0.36s-0.64-0.12-0.88-0.36
	c-0.49-0.49-0.49-1.28,0-1.77l4.08-4.08c0.49-0.49,1.28-0.49,1.77,0C385.86,141.56,385.86,142.35,385.38,142.84z M387.89,140.32
	c-0.23,0.23-0.56,0.37-0.89,0.37c-0.33,0-0.65-0.14-0.88-0.37c-0.23-0.23-0.37-0.55-0.37-0.88c0-0.33,0.14-0.65,0.37-0.88
	c0.23-0.24,0.55-0.37,0.88-0.37c0.33,0,0.66,0.13,0.89,0.37c0.23,0.23,0.36,0.55,0.36,0.88
	C388.25,139.77,388.12,140.09,387.89,140.32z M399.76,138.17c-0.1,0.94-0.57,1.79-1.31,2.38c-0.64,0.51-1.41,0.78-2.21,0.78
	c-0.13,0-0.27-0.01-0.4-0.02l-1.3-0.15c-1.94-0.22-3.35-1.98-3.13-3.92c0.21-1.95,1.98-3.36,3.92-3.14l1.3,0.14
	c0.94,0.11,1.79,0.58,2.38,1.32C399.6,136.3,399.87,137.23,399.76,138.17z M410.26,107.16c0.23-0.23,0.56-0.36,0.89-0.36
	c0.32,0,0.65,0.13,0.88,0.36c0.23,0.23,0.37,0.56,0.37,0.88c0,0.33-0.14,0.66-0.37,0.89c-0.23,0.23-0.56,0.36-0.88,0.36
	c-0.33,0-0.66-0.13-0.89-0.36c-0.23-0.23-0.36-0.56-0.36-0.89C409.9,107.72,410.03,107.39,410.26,107.16z M405.83,128.85h-1.04
	c-0.13,0-0.26-0.01-0.38-0.02c-1.88-0.19-3.35-1.79-3.35-3.72c0-2.06,1.67-3.73,3.73-3.73h1.04c2.06,0,3.73,1.67,3.73,3.73
	S407.89,128.85,405.83,128.85z"/>
<path id="XMLID_202_" d="M410.26,107.16c0.23-0.23,0.56-0.36,0.89-0.36c0.32,0,0.65,0.13,0.88,0.36c0.23,0.23,0.37,0.56,0.37,0.88
	c0,0.33-0.14,0.66-0.37,0.89c-0.23,0.23-0.56,0.36-0.88,0.36c-0.33,0-0.66-0.13-0.89-0.36c-0.23-0.23-0.36-0.56-0.36-0.89
	C409.9,107.72,410.03,107.39,410.26,107.16z"/>
<path id="XMLID_182_" d="M405.83,126.35c0.68,0,1.23-0.56,1.23-1.24s-0.55-1.23-1.23-1.23h-1.04c-0.68,0-1.23,0.55-1.23,1.23
	s0.55,1.24,1.23,1.24H405.83z M405.83,121.38c2.06,0,3.73,1.67,3.73,3.73s-1.67,3.74-3.73,3.74h-1.04c-0.13,0-0.26-0.01-0.38-0.02
	c-1.88-0.19-3.35-1.79-3.35-3.72c0-2.06,1.67-3.73,3.73-3.73H405.83z"/>
<path id="XMLID_177_" d="M398.45,140.55c-0.64,0.51-1.41,0.78-2.21,0.78c-0.13,0-0.27-0.01-0.4-0.02l-1.3-0.15
	c-1.94-0.22-3.35-1.98-3.13-3.92c0.21-1.95,1.98-3.36,3.92-3.14l1.3,0.14c0.94,0.11,1.79,0.58,2.38,1.32
	c0.59,0.74,0.86,1.67,0.75,2.61C399.66,139.11,399.19,139.96,398.45,140.55z M397.06,137.12c-0.18-0.22-0.43-0.36-0.71-0.39
	l-1.3-0.15c-0.57-0.06-1.1,0.36-1.16,0.93c-0.06,0.58,0.35,1.1,0.93,1.17l1.3,0.14c0.27,0.03,0.55-0.05,0.77-0.22
	c0.22-0.18,0.36-0.43,0.39-0.71S397.23,137.34,397.06,137.12z"/>
<path id="XMLID_176_" d="M387.89,138.56c0.23,0.23,0.36,0.55,0.36,0.88s-0.13,0.65-0.36,0.88c-0.23,0.23-0.56,0.37-0.89,0.37
	s-0.65-0.14-0.88-0.37c-0.23-0.23-0.37-0.55-0.37-0.88s0.14-0.65,0.37-0.88c0.23-0.24,0.55-0.37,0.88-0.37
	S387.66,138.32,387.89,138.56z"/>
<path id="XMLID_147_" d="M384.74,123.89c0.28-0.06,0.52-0.23,0.68-0.47c0.16-0.25,0.21-0.54,0.15-0.82l-0.12-0.57
	c-0.11-0.51-0.56-0.86-1.06-0.86c-0.07,0-0.15,0.01-0.23,0.03c-0.28,0.06-0.52,0.22-0.68,0.47c-0.16,0.24-0.21,0.53-0.15,0.81
	l0.12,0.57c0.06,0.28,0.23,0.53,0.47,0.68C384.16,123.89,384.45,123.95,384.74,123.89z M380.89,123c-0.42-1.93,0.82-3.84,2.75-4.25
	c1.93-0.41,3.84,0.83,4.25,2.76l0.13,0.57c0.2,0.93,0.02,1.89-0.5,2.7c-0.52,0.8-1.33,1.35-2.26,1.55
	c-0.25,0.05-0.51,0.08-0.76,0.08c-0.68,0-1.35-0.2-1.94-0.58c-0.8-0.52-1.35-1.32-1.55-2.26L380.89,123z"/>
<path id="XMLID_144_" d="M385.38,142.84l-4.09,4.08c-0.24,0.24-0.56,0.36-0.88,0.36s-0.64-0.12-0.88-0.36
	c-0.49-0.49-0.49-1.28,0-1.77l4.08-4.08c0.49-0.49,1.28-0.49,1.77,0C385.86,141.56,385.86,142.35,385.38,142.84z"/>
<path id="XMLID_143_" d="M377.55,119.06c0.63,3.72,1.95,7.23,3.93,10.45c0.36,0.59,0.17,1.35-0.42,1.72
	c-0.2,0.12-0.43,0.18-0.65,0.18c-0.42,0-0.83-0.21-1.06-0.6c-2.14-3.48-3.58-7.3-4.26-11.33l-0.26-1.5
	c-0.11-0.68,0.34-1.32,1.03-1.44c0.68-0.11,1.32,0.35,1.44,1.03L377.55,119.06z"/>
<path id="XMLID_139_" d="M374,134.81c0.28-0.08,0.51-0.25,0.66-0.5s0.19-0.54,0.12-0.82l-0.16-0.62c-0.12-0.49-0.56-0.82-1.05-0.82
	c-0.08,0-0.17,0.01-0.26,0.03c-0.58,0.15-0.93,0.74-0.79,1.32l0.16,0.62C372.83,134.6,373.42,134.95,374,134.81z M370.1,134.01
	c-0.48-1.92,0.68-3.87,2.6-4.35c0.92-0.24,1.89-0.1,2.71,0.4c0.82,0.49,1.4,1.27,1.64,2.2l0.15,0.62c0.24,0.93,0.1,1.89-0.39,2.71
	c-0.49,0.82-1.27,1.4-2.2,1.64c-0.3,0.07-0.59,0.11-0.89,0.11c-0.63,0-1.26-0.17-1.83-0.51c-0.82-0.49-1.4-1.27-1.63-2.2
	L370.1,134.01z"/>
<path id="XMLID_133_" d="M403.39,154.45c2.14-1.36,6.58-4.42,9.73-8.12l-7.88-3.33c-1.83-0.77-2.88-2.68-2.56-4.64
	c0.36-2.2,2.31-3.74,4.54-3.59c2.56,0.19,6.38,0.46,9.15,0.65c1.54,0.11,2.91-0.9,3.26-2.39c0.32-1.36,0.58-2.77,0.75-4.21
	l-5.84-0.39c-1.02-0.07-1.97-0.56-2.62-1.34c-0.48-0.58-0.77-1.31-0.84-2.06c-0.01-0.25-0.01-0.51,0.02-0.76l0.01-0.05
	c0.19-1.51,1.25-2.76,2.71-3.18l4.41-1.25c1.32-0.38,2.19-1.68,2.01-3.04c-0.08-0.62-0.17-1.25-0.27-1.88
	c-1.3-7.99-2.6-11.4-3.07-12.45c-1.63-0.51-7.55-2.13-15.27-1.07c-0.08,0.01-0.14,0.09-0.13,0.17l0.56,4.91
	c0.26,2.26-1.37,4.34-3.63,4.63c-1.16,0.14-2.33-0.2-3.22-0.96c-0.22-0.19-0.42-0.4-0.6-0.62c-0.53-0.68-0.84-1.51-0.89-2.39
	l-0.25-5.79c-2.18,0.04-4.28,0.2-6.28,0.48c-1.22,0.18-2.08,1.33-1.91,2.57l1.04,7.79c0.26,1.92-0.83,3.73-2.65,4.4
	c-1.12,0.42-2.37,0.33-3.42-0.26c-1.05-0.58-1.79-1.58-2.04-2.76l-1.78-8.54c-1.66,0.81-3.22,1.76-4.64,2.82
	c-1.27,0.94-1.76,2.57-1.24,4.05l2.97,8.39c0.73,2.08-0.13,4.38-2.04,5.47c-1.27,0.72-2.77,0.8-4.1,0.2
	c-1.34-0.59-2.29-1.75-2.6-3.18l-1.13-5.19c-2.54,5.19-2.83,11.04-0.79,16.2c1.92,4.86,5.66,8.47,10.58,10.25l19.91-19.92
	c-2.12-4.25-3.32-8.81-3.57-13.56l-0.01-0.17c-0.04-0.69,0.49-1.28,1.18-1.31c0.44-0.03,0.84,0.18,1.08,0.51
	c0.14,0.19,0.23,0.42,0.24,0.67v0.17c0.22,4.12,1.21,8.09,2.95,11.82l11.16-11.16c0.49-0.49,1.28-0.49,1.77,0
	c0.49,0.49,0.49,1.28,0,1.77l-14.32,14.32c3.3,1.49,6.78,2.55,10.36,3.15c0.43,0.08,0.86,0.14,1.29,0.2
	c0.68,0.09,1.16,0.72,1.07,1.4c-0.09,0.63-0.62,1.08-1.24,1.08c-0.05,0-0.11,0-0.17-0.01c-4.59-0.62-9.02-1.95-13.19-3.94
	l-16.75,16.75c2.87,7.89,10.71,12.6,19.19,11.82l-5.43-3.7c-0.96-0.65-1.6-1.65-1.8-2.8c-0.19-1.14,0.08-2.29,0.76-3.23
	c0.69-0.95,1.71-1.55,2.87-1.71s2.3,0.16,3.22,0.88L403.39,154.45z M416.13,146.56c-3.78,5.14-10.27,9.32-12.17,10.48
	c-0.45,0.28-1.02,0.24-1.43-0.08l-10.08-7.98c-0.37-0.3-0.85-0.43-1.32-0.36c-0.48,0.06-0.9,0.31-1.19,0.7
	c-0.28,0.39-0.39,0.87-0.31,1.34c0.08,0.47,0.34,0.89,0.74,1.16l8,5.45c0.41,0.28,0.61,0.77,0.53,1.25
	c-0.09,0.49-0.46,0.88-0.94,0.99c-1.79,0.44-3.61,0.66-5.41,0.66c-3.48,0-6.88-0.81-9.93-2.38c-4.22-2.18-7.48-5.73-9.34-10.11
	l-6.14,6.14c-0.24,0.24-0.56,0.36-0.88,0.36c-0.32,0-0.64-0.12-0.89-0.36c-0.49-0.49-0.49-1.28,0-1.77l6.14-6.13
	c-5.07-2.15-8.93-6.08-10.97-11.26c-2.47-6.23-1.92-13.31,1.5-19.42c0.33-0.61,0.7-1.22,1.09-1.82c0.28-0.42,0.78-0.64,1.28-0.54
	c0.49,0.09,0.88,0.47,0.99,0.96l1.82,8.35c0.14,0.65,0.57,1.17,1.17,1.44c0.61,0.27,1.28,0.23,1.85-0.09
	c0.86-0.49,1.25-1.53,0.92-2.46l-2.97-8.4c-0.89-2.52-0.04-5.28,2.1-6.88c1.98-1.48,4.19-2.74,6.56-3.75
	c0.34-0.15,0.73-0.14,1.07,0.04c0.33,0.17,0.57,0.48,0.64,0.85l2.1,10.07c0.1,0.47,0.38,0.86,0.8,1.09c0.42,0.23,0.89,0.27,1.34,0.1
	c0.72-0.27,1.14-0.98,1.04-1.73l-1.04-7.79c-0.35-2.59,1.46-5,4.04-5.37c2.47-0.36,5.11-0.53,7.83-0.51c0.67,0,1.21,0.53,1.24,1.19
	l0.31,6.99c0.02,0.48,0.23,0.91,0.6,1.21c0.36,0.31,0.82,0.45,1.3,0.39c0.91-0.12,1.56-0.95,1.46-1.87l-0.57-4.9
	c-0.16-1.43,0.86-2.74,2.28-2.94c9.73-1.34,16.65,1.26,16.94,1.37c0.26,0.1,0.48,0.28,0.62,0.51c0.19,0.31,1.9,3.29,3.59,13.72
	c0.1,0.66,0.2,1.31,0.28,1.96c0.34,2.57-1.3,5.05-3.81,5.76l-4.41,1.26c-0.49,0.14-0.85,0.56-0.91,1.08l-0.01,0.05
	c-0.04,0.33,0.06,0.66,0.27,0.92c0.22,0.26,0.52,0.41,0.85,0.44l7.15,0.48c0.33,0.02,0.65,0.18,0.86,0.43
	c0.22,0.26,0.33,0.59,0.3,0.93c-0.18,1.99-0.5,3.96-0.95,5.82c-0.64,2.7-3.1,4.51-5.86,4.32c-2.78-0.2-6.6-0.47-9.16-0.65
	c-0.93-0.07-1.74,0.57-1.89,1.49c-0.13,0.82,0.3,1.62,1.07,1.94l9.38,3.97c0.36,0.15,0.62,0.45,0.72,0.82
	C416.42,145.86,416.35,146.25,416.13,146.56z"/>
<path id="XMLID_151_" class="st0" d="M517.03,117.04c2.87,0,5.21,2.33,5.21,5.21c0,2.87-2.34,5.2-5.21,5.2s-5.21-2.33-5.21-5.2
	C511.82,119.37,514.16,117.04,517.03,117.04z"/>
<path id="XMLID_52_" class="st0" d="M535.84,105.3h-48.28v33.89h48.29h10.64V105.3H535.84z M490.18,107.3l0.07-0.04
	c0.59-0.38,1.38-0.2,1.75,0.39c0.38,0.59,0.2,1.37-0.39,1.75l-0.07,0.04c-0.21,0.14-0.45,0.2-0.68,0.2c-0.42,0-0.83-0.21-1.07-0.59
	C489.41,108.46,489.59,107.68,490.18,107.3z M491.61,137.51l-0.07,0.04c-0.21,0.13-0.45,0.2-0.68,0.2c-0.42,0-0.83-0.21-1.07-0.59
	c-0.38-0.59-0.2-1.37,0.39-1.75l0.07-0.04c0.59-0.38,1.37-0.21,1.75,0.39C492.38,136.35,492.2,137.13,491.61,137.51z M537.11,134.85
	c0,0.01,0,0.03,0,0.05v0.06c0.01,0.34-0.12,0.67-0.36,0.92c-0.24,0.24-0.56,0.38-0.9,0.38h-37.64c-0.34,0-0.67-0.14-0.91-0.38
	c-0.23-0.25-0.36-0.58-0.36-0.92l0.01-0.06c0-0.02,0-0.04,0-0.05c0-2.74-2.23-4.96-4.96-4.96c-0.7,0-1.27-0.57-1.27-1.27v-12.89
	c0-0.7,0.57-1.27,1.27-1.27c2.73,0,4.96-2.23,4.96-4.96c0-0.7,0.56-1.27,1.27-1.27h3.42c0.7,0,1.27,0.57,1.27,1.27l2.6,0.04
	c0-0.42,0.21-0.83,0.59-1.07l0.07-0.04c0.59-0.38,1.37-0.2,1.75,0.39c0.13,0.21,0.2,0.45,0.2,0.68h2.52c0-0.7,0.57-1.27,1.27-1.27
	h23.93c0.7,0,1.27,0.57,1.27,1.27c0,2.73,2.22,4.96,4.96,4.96c0.7,0,1.27,0.57,1.27,1.27v12.89c0,0.7-0.57,1.27-1.27,1.27
	C539.33,129.89,537.11,132.11,537.11,134.85z M544.03,137.48l-0.07,0.05c-0.21,0.13-0.45,0.2-0.68,0.2c-0.42,0-0.83-0.21-1.07-0.59
	c-0.38-0.6-0.2-1.38,0.39-1.75l0.07-0.05c0.59-0.37,1.38-0.2,1.75,0.4C544.8,136.33,544.62,137.11,544.03,137.48z M544.03,109.4
	l-0.07,0.04c-0.21,0.14-0.45,0.2-0.68,0.2c-0.42,0-0.83-0.21-1.07-0.59c-0.38-0.59-0.2-1.37,0.39-1.75l0.07-0.04
	c0.59-0.38,1.38-0.2,1.75,0.39C544.8,108.24,544.62,109.02,544.03,109.4z"/>
<path id="XMLID_131_" d="M549.03,145.56c0,0.7-0.57,1.27-1.27,1.27h-5.94c-0.7,0-1.27-0.57-1.27-1.27s0.57-1.27,1.27-1.27h5.94
	C548.46,144.29,549.03,144.86,549.03,145.56z"/>
<path id="XMLID_130_" d="M547.76,153.34c0.7,0,1.27,0.57,1.27,1.27s-0.57,1.27-1.27,1.27H486.3c-0.7,0-1.27-0.57-1.27-1.27
	s0.57-1.27,1.27-1.27H547.76z"/>
<path id="XMLID_129_" d="M547.76,148.82c0.7,0,1.27,0.57,1.27,1.27c0,0.7-0.57,1.26-1.27,1.26H486.3c-0.7,0-1.27-0.56-1.27-1.26
	c0-0.7,0.57-1.27,1.27-1.27H547.76z"/>
<path id="XMLID_128_" d="M544.42,135.74c0.38,0.59,0.2,1.37-0.39,1.74l-0.07,0.05c-0.21,0.13-0.45,0.2-0.68,0.2
	c-0.42,0-0.83-0.21-1.07-0.59c-0.38-0.6-0.2-1.38,0.39-1.75l0.07-0.05C543.26,134.97,544.05,135.14,544.42,135.74z"/>
<path id="XMLID_127_" d="M544.42,107.65c0.38,0.59,0.2,1.37-0.39,1.75l-0.07,0.04c-0.21,0.14-0.45,0.2-0.68,0.2
	c-0.42,0-0.83-0.21-1.07-0.59c-0.38-0.59-0.2-1.37,0.39-1.75l0.07-0.04C543.26,106.88,544.05,107.06,544.42,107.65z"/>
<path id="XMLID_126_" d="M536.63,146.83c-0.42,0-0.83-0.21-1.07-0.59c-0.38-0.59-0.2-1.37,0.39-1.75l0.07-0.04
	c0.59-0.38,1.38-0.2,1.75,0.39c0.38,0.59,0.2,1.37-0.39,1.75l-0.07,0.04C537.1,146.77,536.86,146.83,536.63,146.83z"/>
<path id="XMLID_125_" d="M531.56,144.29c0.7,0,1.27,0.57,1.27,1.27s-0.57,1.27-1.27,1.27H486.3c-0.7,0-1.27-0.57-1.27-1.27
	s0.57-1.27,1.27-1.27H531.56z"/>
<path id="XMLID_122_" d="M522.24,122.25c0-2.88-2.34-5.21-5.21-5.21s-5.21,2.33-5.21,5.21c0,2.87,2.34,5.2,5.21,5.2
	S522.24,125.12,522.24,122.25z M517.03,129.99c-4.27,0-7.75-3.47-7.75-7.74c0-4.28,3.48-7.75,7.75-7.75s7.74,3.47,7.74,7.75
	C524.77,126.52,521.3,129.99,517.03,129.99z"/>
<path id="XMLID_121_" d="M507.92,108.82c0.13,0.21,0.2,0.45,0.2,0.68c0,0.42-0.21,0.83-0.59,1.07l-0.07,0.04
	c-0.21,0.14-0.45,0.2-0.68,0.2c-0.42,0-0.83-0.21-1.07-0.59c-0.14-0.21-0.2-0.44-0.2-0.68c0-0.42,0.21-0.83,0.59-1.07l0.07-0.04
	C506.76,108.05,507.54,108.23,507.92,108.82z"/>
<path id="XMLID_120_" d="M535.85,136.26h-37.64c-0.34,0-0.67-0.14-0.91-0.38c-0.23-0.25-0.36-0.58-0.36-0.92l0.01-0.06
	c0-0.02,0-0.04,0-0.05c0-2.74-2.23-4.96-4.96-4.96c-0.7,0-1.27-0.57-1.27-1.27v-12.89c0-0.7,0.57-1.27,1.27-1.27
	c2.73,0,4.96-2.23,4.96-4.96c0-0.7,0.56-1.27,1.27-1.27h3.42c0.7,0,1.27,0.57,1.27,1.27c0,0.7-0.57,1.27-1.27,1.27h-2.26
	c-0.54,3.12-3.01,5.58-6.13,6.12v10.57c3.17,0.54,5.67,3.08,6.15,6.26h35.26c0.48-3.18,2.97-5.72,6.14-6.26v-10.57
	c-3.12-0.54-5.58-3-6.12-6.12h-22.77c-0.7,0-1.27-0.57-1.27-1.27c0-0.7,0.57-1.27,1.27-1.27h23.93c0.7,0,1.27,0.57,1.27,1.27
	c0,2.73,2.22,4.96,4.96,4.96c0.7,0,1.27,0.57,1.27,1.27v12.89c0,0.7-0.57,1.27-1.27,1.27c-2.74,0-4.96,2.22-4.96,4.96
	c0,0.01,0,0.03,0,0.05v0.06c0.01,0.34-0.12,0.67-0.36,0.92C536.51,136.12,536.19,136.26,535.85,136.26z"/>
<path id="XMLID_119_" d="M492,107.65c0.38,0.59,0.2,1.37-0.39,1.75l-0.07,0.04c-0.21,0.14-0.45,0.2-0.68,0.2
	c-0.42,0-0.83-0.21-1.07-0.59c-0.38-0.59-0.2-1.37,0.39-1.75l0.07-0.04C490.84,106.88,491.63,107.06,492,107.65z"/>
<path id="XMLID_118_" d="M492,135.76c0.38,0.59,0.2,1.37-0.39,1.75l-0.07,0.04c-0.21,0.13-0.45,0.2-0.68,0.2
	c-0.42,0-0.83-0.21-1.07-0.59c-0.38-0.59-0.2-1.37,0.39-1.75l0.07-0.04C490.84,134.99,491.62,135.16,492,135.76z"/>
<path id="XMLID_115_" d="M546.49,139.19V105.3h-10.65h-48.28v33.89h48.29H546.49z M547.76,141.72H486.3c-0.7,0-1.27-0.57-1.27-1.27
	v-36.41c0-0.7,0.57-1.27,1.27-1.27h61.46c0.7,0,1.27,0.57,1.27,1.27v36.41C549.03,141.15,548.46,141.72,547.76,141.72z"/>
<path id="XMLID_240_" d="M170.63,97.7c0.49,0.49,0.49,1.28,0,1.77l-5.36,5.36c2.38,3.15,2.39,7.48,0.1,10.56l4.52,4.39
	c0,0.01,0.01,0.01,0.01,0.02c1.47,1.46,1.47,3.83,0,5.3l-35.29,35.13c-1.46,1.47-3.83,1.47-5.3,0l-4.96-4.96
	c-3.17,1.11-6.76,0.31-9.18-2.11c-2.42-2.42-3.22-6.01-2.11-9.18l-4.96-4.96c-1.47-1.47-1.47-3.84,0-5.3l35.13-35.29
	c1.48-1.47,3.85-1.46,5.31,0c0,0,0,0.01,0.01,0.01l4.39,4.53c3.11-2.31,7.43-2.27,10.56,0.09l5.37-5.36
	C169.35,97.21,170.15,97.21,170.63,97.7z M168.13,123.33c0.49-0.48,0.49-1.27,0.01-1.76l-5.36-5.21c-0.24-0.23-0.38-0.55-0.38-0.89
	c0-0.33,0.13-0.65,0.37-0.89c2.17-2.17,2.36-5.52,0.71-7.96l-1.84,1.83c0.66,1.37,0.45,3.1-0.73,4.27c-1.46,1.47-3.84,1.47-5.3,0
	c-1.46-1.46-1.46-3.84,0-5.3c1.15-1.15,2.87-1.4,4.27-0.73l1.83-1.84c-2.47-1.66-5.82-1.43-7.96,0.71
	c-0.51,0.52-1.31,0.47-1.78-0.01l-5.21-5.36c-0.49-0.48-1.27-0.48-1.76,0.01l-32.49,32.63l-2.64,2.65c-0.49,0.49-0.49,1.28,0,1.77
	l5.54,5.55c0.37,0.37,0.47,0.93,0.25,1.41c-1.13,2.4-0.62,5.29,1.28,7.18c1.89,1.9,4.78,2.41,7.18,1.28
	c0.17-0.08,0.35-0.12,0.53-0.12c0.33,0,0.65,0.13,0.89,0.37l5.54,5.54c0.49,0.49,1.28,0.49,1.77,0L168.13,123.33z M159.14,110.96
	c0.49-0.49,0.49-1.28,0-1.77c-0.48-0.49-1.28-0.49-1.77,0c-0.48,0.48-0.48,1.28,0.01,1.77
	C157.86,111.44,158.66,111.44,159.14,110.96z"/>
<path id="XMLID_238_" d="M163.56,122.45c0.49,0.48,0.49,1.28,0,1.76l-29.83,29.83c-0.49,0.49-1.28,0.49-1.77,0l-17.67-17.67
	c-0.49-0.49-0.49-1.28,0-1.77l9.63-9.64c0.49-0.48,1.28-0.48,1.77,0c0.49,0.49,0.49,1.28,0,1.77l-8.75,8.75l15.91,15.91l10.52-10.51
	l17.54-17.55L145,107.42l-10.47,10.47l-1.77,1.77c-0.49,0.49-1.28,0.49-1.77,0c-0.48-0.49-0.48-1.28,0-1.77l13.13-13.12
	c0.23-0.24,0.55-0.37,0.88-0.37s0.65,0.13,0.89,0.37l8.83,8.84L163.56,122.45z"/>
<path id="XMLID_234_" d="M149.01,127.37c0.14,0.68-0.3,1.34-0.98,1.47l-10.18,2.04l-7.5,1.5c-0.67,0.13-1.33-0.31-1.47-0.98
	c-0.13-0.68,0.31-1.34,0.98-1.47l10.19-2.04l7.49-1.5C148.22,126.25,148.88,126.69,149.01,127.37z"/>
<path id="XMLID_231_" d="M141.6,119.66c1.46,1.46,1.46,3.84,0,5.3c-0.55,0.56-1.22,0.9-1.93,1.03c-1.19,0.23-2.46-0.11-3.37-1.03
	c-1.47-1.46-1.47-3.83,0-5.3C137.76,118.2,140.14,118.2,141.6,119.66z M139.83,123.2c0.49-0.49,0.49-1.28,0-1.77
	c-0.49-0.49-1.28-0.49-1.77,0c-0.49,0.49-0.48,1.28,0,1.77C138.55,123.68,139.35,123.68,139.83,123.2z"/>
<path id="XMLID_228_" d="M141.6,133.8c1.46,1.46,1.46,3.84,0,5.31c-1.47,1.46-3.84,1.46-5.3,0c-1.47-1.47-1.47-3.84,0-5.31
	c0.55-0.55,1.22-0.89,1.93-1.03C139.42,132.55,140.69,132.89,141.6,133.8z M139.83,137.34c0.49-0.49,0.49-1.28,0-1.77
	c-0.49-0.49-1.28-0.49-1.77,0c-0.49,0.49-0.48,1.28,0,1.77C138.55,137.83,139.34,137.83,139.83,137.34z"/>
<path id="XMLID_227_" d="M129.23,121.43c0.48,0.49,0.48,1.28,0,1.77c-0.49,0.48-1.28,0.48-1.77,0c-0.49-0.49-0.49-1.28,0-1.77
	C127.95,120.94,128.74,120.94,129.23,121.43z"/>
<path id="XMLID_179_" class="st0" d="M168.14,121.57l-5.36-5.21c-0.24-0.23-0.38-0.55-0.38-0.89c0-0.33,0.13-0.65,0.37-0.89
	c2.17-2.17,2.36-5.52,0.71-7.96l-1.84,1.83c0.66,1.37,0.45,3.1-0.73,4.27c-1.46,1.47-3.84,1.47-5.3,0c-1.46-1.46-1.46-3.84,0-5.3
	c1.15-1.15,2.87-1.4,4.27-0.73l1.83-1.84c-2.47-1.66-5.82-1.43-7.96,0.71c-0.51,0.52-1.31,0.47-1.78-0.01l-5.21-5.36
	c-0.49-0.48-1.27-0.48-1.76,0.01l-32.49,32.63l-2.64,2.65c-0.49,0.49-0.49,1.28,0,1.77l5.54,5.55c0.37,0.37,0.47,0.93,0.25,1.41
	c-1.13,2.4-0.62,5.29,1.28,7.18c1.89,1.9,4.78,2.41,7.18,1.28c0.17-0.08,0.35-0.12,0.53-0.12c0.33,0,0.65,0.13,0.89,0.37l5.54,5.54
	c0.49,0.49,1.28,0.49,1.77,0l35.28-35.13C168.62,122.85,168.62,122.06,168.14,121.57z M163.56,124.21l-29.83,29.83
	c-0.49,0.49-1.28,0.49-1.77,0l-17.67-17.67c-0.49-0.49-0.49-1.28,0-1.77l9.63-9.64c0.01-0.01,0.02-0.01,0.02-0.02l7.03-7.03
	c0.01-0.01,0.01-0.02,0.01-0.02l8.33-8.33l0.03-0.03l4.77-4.76c0.23-0.24,0.55-0.37,0.88-0.37c0.33,0,0.65,0.13,0.89,0.37l8.83,8.84
	l8.84,8.84C164.05,122.93,164.05,123.73,163.56,124.21z"/>
<g id="XMLID_7_">
	<circle id="XMLID_2_" class="st2" cx="359.77" cy="40.08" r="15"/>
	<g id="XMLID_5_">
		<path id="XMLID_3_" d="M367.13,41.02h-14.72c-0.52,0-0.94-0.42-0.94-0.94v0c0-0.52,0.42-0.94,0.94-0.94h14.72
			c0.52,0,0.94,0.42,0.94,0.94v0C368.07,40.6,367.65,41.02,367.13,41.02z"/>
		<path id="XMLID_4_" d="M360.71,32.72v14.72c0,0.52-0.42,0.94-0.94,0.94l0,0c-0.52,0-0.94-0.42-0.94-0.94V32.72
			c0-0.52,0.42-0.94,0.94-0.94l0,0C360.29,31.78,360.71,32.2,360.71,32.72z"/>
	</g>
	<g id="XMLID_6_">
		<circle id="XMLID_13_" class="st2" cx="409.57" cy="40.08" r="15"/>
		<path id="XMLID_12_" d="M416.93,41.02h-14.72c-0.52,0-0.94-0.42-0.94-0.94v0c0-0.52,0.42-0.94,0.94-0.94h14.72
			c0.52,0,0.94,0.42,0.94,0.94v0C417.87,40.6,417.45,41.02,416.93,41.02z"/>
	</g>
</g>
<g id="XMLID_1_">
</g>
<g id="XMLID_8_">
</g>
<g id="XMLID_15_">
</g>
<g id="XMLID_16_">
</g>
<g id="XMLID_18_">
</g>
<g id="XMLID_19_">
</g>
<g id="XMLID_21_">
</g>
<g id="XMLID_22_">
</g>
<g id="XMLID_24_">
</g>
<g id="XMLID_25_">
</g>
<g id="XMLID_31_">
</g>
<g id="XMLID_35_">
</g>
<g id="XMLID_36_">
</g>
<g id="XMLID_37_">
</g>
<g id="XMLID_38_">
</g>
</svg>
